<?xml version="1.0" encoding="utf-8"?>
<svg version="1.1" xmlns:xlink="http://www.w3.org/1999/xlink" width="43px" height="43px" xmlns="http://www.w3.org/2000/svg">
  <g transform="matrix(1 0 0 1 -1472 -787 )">
    <path d="M 0 39.405589848814024  C 0 39.405589848814024  0 3.59245924256418  0 3.59245924256418  C 0 2.6396811280201886  0.3784901361257262 1.7259260789111677  1.0522060105188535 1.0522102045180404  C 1.7259218849119808 0.37849433012491307  2.639676701021047 0  3.5924548155650387 0  C 3.5924548155650387 0  39.40363264919345 0  39.40363264919345 0  C 39.875801436533585 -0.0007663797354319535  40.34348523686819 0.091600466367291  40.77990932638781 0.2718169318054432  C 41.21633341590743 0.4520333972435954  41.61292616314878 0.7165601682123125  41.946981868138586 1.0502527718975092  C 42.281037573128394 1.3839453755827058  42.54599819001301 1.780250630004785  42.72668918898416 2.216478475312452  C 42.90738018795532 2.652706320620119  43.00025393465377 3.120289872724154  42.999996272000715 3.59245924256418  C 42.999996272000715 3.59245924256418  42.999996272000715 39.403636377192726  42.999996272000715 39.403636377192726  C 43.00051022826143 39.87589751988996  42.90790193310417 40.343626726090754  42.72747206883239 40.78006217435818  C 42.54704220456061 41.2164976226256  42.28233273250232 41.613074875369946  41.94848425184733 41.94710489211474  C 41.614635771192354 42.28113490885952  41.21820009504556 42.54606309506291  40.78186279800911 42.72673019697621  C 40.34552550097266 42.9073972988895  39.87784746738694 43.00025722276324  39.405586120814746 43  C 39.405586120814746 43  3.5924548155650387 43  3.5924548155650387 43  C 3.1205224940540583 43.00000006984877  2.6532144352716154 42.90701360621388  2.21723036616669 42.7263536690492  C 1.7812462970617644 42.54569373188452  1.3851304716029627 42.28090217102963  1.0515146996528713 41.94710489211474  C 0.71789892770278 41.61330761319983  0.45332146468139006 41.21704659964418  0.27289869234573255 40.78096435018328  C 0.09247592001007515 40.34488210072239  -0.0002562322917308883 39.877522082950016  0 39.405589848814024  Z M 22.842771283689736 16.39473053370991  C 22.842771283689736 16.39473053370991  17.020180700459854 16.39473053370991  17.020180700459854 16.39473053370991  C 17.020180700459854 16.39473053370991  17.020180700459854 36.995635900008814  17.020180700459854 36.995635900008814  C 17.020180700459854 36.995635900008814  23.290362332919525 36.995635900008814  23.290362332919525 36.995635900008814  C 23.290362332919525 36.995635900008814  23.290362332919525 27.015729642718085  23.290362332919525 27.015729642718085  C 23.290362332919525 23.67150272703147  24.521724921207 21.543004335663156  27.482861000159783 21.543004335663156  C 29.617224466391086 21.543004335663156  30.45767953546008 23.517093656965287  30.45767953546008 27.015729642718085  C 30.45767953546008 27.015729642718085  30.45767953546008 36.995635900008814  30.45767953546008 36.995635900008814  C 30.45767953546008 36.995635900008814  36.72590769629845 36.995635900008814  36.72590769629845 36.995635900008814  C 36.72590769629845 36.995635900008814  36.72590769629845 25.616275994016824  36.72590769629845 25.616275994016824  C 36.72590769629845 19.47314038292795  35.258041998859575 16.12500419399919  29.064088165622348 16.12500419399919  C 25.83322481495902 16.12500419399919  23.683225770258836 17.637821873723645  22.842771283689736 19.31873084686185  C 22.842771283689736 19.31873084686185  22.842771283689736 16.39473053370991  22.842771283689736 16.39473053370991  Z M 6.270182098459583 36.72591142429773  C 6.270182098459583 36.72591142429773  6.270182098459583 36.727864895919026  6.270182098459583 36.727864895919026  C 6.270182098459583 36.727864895919026  12.540363264919344 36.727864895919026  12.540363264919344 36.727864895919026  C 12.540363264919344 36.727864895919026  12.540363264919344 16.12500419399919  12.540363264919344 16.12500419399919  C 12.540363264919344 16.12500419399919  6.270182098459583 16.12500419399919  6.270182098459583 16.12500419399919  C 6.270182098459583 16.12500419399919  6.270182098459583 36.72591142429773  6.270182098459583 36.72591142429773  Z M 13.15651300547227 10.975391108305573  C 13.353790499415462 10.475951045127257  13.44932175966526 9.942136556862781  13.437499767000045 9.405276176688785  C 13.414294795451697 8.351491940975889  12.979383760310627 7.348686697380178  12.225905593880256 6.611617902268678  C 11.472427427449883 5.874549107157177  10.460289836663348 5.46182044316895  9.406250116499976 5.461820443168948  C 8.352210396336606 5.46182044316895  7.3400723395501615 5.874549107157177  6.58659417311979 6.611617902268678  C 5.833116006689417 7.348686697380178  5.398204971548347 8.351491940975889  5.375 9.405276176688785  C 5.363178007334787 9.942136556862781  5.458708801584672 10.475951045127257  5.655986295527866 10.975391108305573  C 5.853263789471059 11.47483117148389  6.148313598210065 11.929836191901405  6.52382025728917 12.313702772859852  C 6.899326916368275 12.697569353818299  7.347726155066391 13.002563950129407  7.842702055610132 13.21078894695031  C 8.337677956153874 13.419013943771215  8.869259605851207 13.52627368179029  9.406250116499976 13.526273681790293  C 9.943240627148747 13.52627368179029  10.474822276846082 13.419013943771215  10.969798177389823 13.21078894695031  C 11.464774077933566 13.002563950129407  11.913172850631769 12.697569353818299  12.288679509710875 12.313702772859852  C 12.664186168789977 11.929836191901405  12.959235511529076 11.47483117148389  13.15651300547227 10.975391108305573  Z " fill-rule="nonzero" fill="#000000" stroke="none" transform="matrix(1 0 0 1 1472 787 )" />
  </g>
</svg>