<?xml version="1.0" encoding="utf-8"?>
<svg version="1.1" xmlns:xlink="http://www.w3.org/1999/xlink" width="57px" height="60px" xmlns="http://www.w3.org/2000/svg">
  <g transform="matrix(1 0 0 1 -1022 -737 )">
    <path d="M 0 54.98454397508933  C 0 54.98454397508933  0 5.01273382683374  0 5.01273382683374  C 0 3.6832759925863097  0.5017194827713114 2.408268947317908  1.3947847116180152 1.4682002853740097  C 2.287849940464719 0.5281316234301112  3.499106324609295 0  4.762091267144354 0  C 4.762091267144354 0  52.23272234893085 0  52.23272234893085 0  C 52.85862050889336 -0.001069367072695749  53.47857345352295 0.1278146042334293  54.05708910707221 0.37927943972852535  C 54.635604760621476 0.6307442752236215  55.16132072789489 0.9998513975055524  55.60413875543952 1.4654689840430362  C 56.046956782984154 1.9310865705805198  56.398183647226546 2.4840706465183047  56.6377042737697 3.092760663226677  C 56.87722490031287 3.70145067993505  57.000336611052674 4.35389284566161  56.99999505823351 5.01273382683374  C 56.99999505823351 5.01273382683374  56.99999505823351 54.98181820073403  56.99999505823351 54.98181820073403  C 57.00067634909074 55.64078723705576  56.87791651597529 56.29343264105687  56.63874204473131 56.902412336313745  C 56.399567573487325 57.51139203157061  56.04867362215423 58.06475564005109  55.60613028733251 58.530844035508935  C 55.16358695251079 58.99693243096677  54.63807919575807 59.36659966752965  54.059678592709744 59.618693298106336  C 53.481277989661436 59.870786928683025  52.86133268932688 60.00035891548359  52.235311834568385 60  C 52.235311834568385 60  4.762091267144354 60  4.762091267144354 60  C 4.1365065618856125 60.0000000974634  3.517051693267025 59.870251543554254  2.9391193225930543 59.61816791030121  C 2.361186951919083 59.366084277048174  1.8361031832876482 58.996607680506465  1.3938683227956665 58.530844035508935  C 0.9516334623036851 58.0650803905114  0.6009144996939356 57.51215804601513  0.3617494293885292 56.903671186302255  C 0.12258435908312287 56.29518432658937  -0.00033965675880606125 55.64305406923258  0 54.98454397508933  Z M 30.27995263186779 22.87636818657197  C 30.27995263186779 22.87636818657197  22.56163488200492 22.87636818657197  22.56163488200492 22.87636818657197  C 22.56163488200492 22.87636818657197  22.56163488200492 51.621817534896024  22.56163488200492 51.621817534896024  C 22.56163488200492 51.621817534896024  30.873270999451464 51.621817534896024  30.873270999451464 51.621817534896024  C 30.873270999451464 51.621817534896024  30.873270999451464 37.69636694332756  30.873270999451464 37.69636694332756  C 30.873270999451464 33.03000380516019  32.50554233741393 30.060006049762546  36.43076923276995 30.060006049762546  C 39.26004173451842 30.060006049762546  40.3741333377029 32.81454928878877  40.3741333377029 37.69636694332756  C 40.3741333377029 37.69636694332756  40.3741333377029 51.621817534896024  40.3741333377029 51.621817534896024  C 40.3741333377029 51.621817534896024  48.6831799695119 51.621817534896024  48.6831799695119 51.621817534896024  C 48.6831799695119 51.621817534896024  48.6831799695119 35.74364092188394  48.6831799695119 35.74364092188394  C 48.6831799695119 27.171823790132024  46.73740451011618 22.500005852091892  38.526814545127294 22.500005852091892  C 34.24404219657359 22.500005852091892  31.394043462901248 24.610914242405087  30.27995263186779 26.956368623528164  C 30.27995263186779 26.956368623528164  30.27995263186779 22.87636818657197  30.27995263186779 22.87636818657197  Z M 8.311636735167353 51.24545780134567  C 8.311636735167353 51.24545780134567  8.311636735167353 51.24818357570097  8.311636735167353 51.24818357570097  C 8.311636735167353 51.24818357570097  16.623272234893086 51.24818357570097  16.623272234893086 51.24818357570097  C 16.623272234893086 51.24818357570097  16.623272234893086 22.500005852091892  16.623272234893086 22.500005852091892  C 16.623272234893086 22.500005852091892  8.311636735167353 22.500005852091892  8.311636735167353 22.500005852091892  C 8.311636735167353 22.500005852091892  8.311636735167353 51.24545780134567  8.311636735167353 51.24545780134567  Z M 17.440028867719054 15.314499220891499  C 17.701536243411194 14.617606109479894  17.828170704672555 13.87274868399458  17.812499691139593 13.123641176775049  C 17.781739612575503 11.653244568803565  17.2052296357606 10.253981438204901  16.206432996538943 9.225513352002807  C 15.207636357317288 8.197045265800712  13.86596559743746 7.62114480442179  12.468750154430202 7.621144804421788  C 11.071534711422943 7.62114480442179  9.729863333822307 8.197045265800712  8.731066694600653 9.225513352002807  C 7.732270055378995 10.253981438204901  7.155760078564089 11.653244568803565  7.125 13.123641176775049  C 7.109328986467042 13.87274868399458  7.235962830007589 14.617606109479894  7.497470205699729 15.314499220891499  C 7.7589775813918695 16.011392332303103  8.150090118557529 16.646283058467077  8.647854759662389 17.181910845850958  C 9.145619400767247 17.717538633234835  9.740009089274054 18.14311248855266  10.396139934180873 18.43365899574462  C 11.052270779087692 18.72420550293658  11.75692552403532 18.873870253660872  12.468750154430202 18.873870253660876  C 13.180574784825081 18.873870253660872  13.885229529772712 18.72420550293658  14.541360374679535 18.43365899574462  C 15.197491219586356 18.14311248855266  15.791880290372346 17.717538633234835  16.289644931477206 17.181910845850958  C 16.787409572582064 16.646283058467077  17.178521492026917 16.011392332303103  17.440028867719054 15.314499220891499  Z " fill-rule="nonzero" fill="#000000" stroke="none" transform="matrix(1 0 0 1 1022 737 )" />
  </g>
</svg>