<?xml version="1.0" encoding="utf-8"?>
<svg version="1.1" xmlns:xlink="http://www.w3.org/1999/xlink" width="57px" height="60px" xmlns="http://www.w3.org/2000/svg">
  <g transform="matrix(1 0 0 1 -1120 -735 )">
    <path d="M 28.5 0  C 44.23912465572358 0  57 13.432500362396238  57 30  C 57 46.56749963760377  44.23912465572358 60  28.5 60  C 12.760875344276426 60  0 46.56749963760377  0 30  C 0 13.432500362396238  12.760875344276426 0  28.5 0  Z M 40.15175032615662 18.05999994277954  C 39.0806253142655 18.079999943729494  37.43712559342384 18.682500422000885  29.52125072479248 22.14750051498413  C 26.749625593423843 23.360000550746918  21.208750158548355 25.872500240802765  12.901000380516052 29.68250036239624  C 11.552000336349012 30.247500352561477  10.844250083202496 30.80000061541796  10.780125081539154 31.340000629425052  C 10.670875081326813 32.255000621080406  11.758624941110611 32.61500045657158  13.235874891281128 33.102500438690186  C 13.437749893404543 33.170000440441065  13.646749909967186 33.23749952483922  13.860499918460848 33.31249952316284  C 15.316374860703947 33.80999952554702  17.273375499993566 34.39249948598445  18.28987550735474 34.41499948501587  C 19.21375050395727 34.434999485965825  20.244500610977415 34.035000652074814  21.382125616073612 33.21500062942505  C 29.143625348806385 27.697500586509705  33.150250311009586 24.909998951479793  33.40200030803681 24.849998950958256  C 33.580125315114856 24.807498948648572  33.82712434697896 24.752499368041757  33.99337434768677 24.90999937057495  C 34.15962434839457 25.064999368041754  34.14300103334245 25.35999909974635  34.126376032829285 25.439999103546146  C 34.01712603261695 25.922499112784866  29.75637496262789 30.095001012086865  27.547624945640564 32.255001068115234  C 26.85887496545911 32.92750105261803  26.372000650968406 33.40500034391881  26.272250652313232 33.515000343322754  C 26.049000659957528 33.75750035047532  25.820999366231263 33.990001045167446  25.60249936580658 34.212501049041755  C 24.248749382793903 35.58250099420548  23.236999809741974 36.612500995397575  25.659499764442447 38.2925009727478  C 26.82324978709221 39.1000010073185  27.754249196499586 39.76750083267689  28.682874202728275 40.432500839233406  C 29.696999169886116 41.16000086069108  30.70875086635352 41.884998083114624  32.01975083351135 42.7899980545044  C 32.35225083492696 43.01999805495144  32.67050020582974 43.25749976560474  32.98162519931794 43.489999771118164  C 34.16200022026897 44.377499744296074  35.22362592071295 45.17249775119126  36.534625887870796 45.04749774932861  C 37.294625870883465 44.972497751004994  38.08312290348113 44.219998866319656  38.48212289810181 41.97249889373779  C 39.42499793320894 36.65749907493592  41.282249361276634 25.147500634193424  41.712124347686775 20.40250062942505  C 41.738284275517806 20.008535459637645  41.72235010610894 19.61272388696671  41.66462326049805 19.222500324249268  C 41.630068551166914 18.907327167689804  41.484268525615335 18.617327716201544  41.256125688552856 18.40999960899353  C 40.91650067269802 18.117499612271782  40.38925032969565 18.05499994254205  40.15175032615662 18.05999994277954  Z " fill-rule="nonzero" fill="#000000" stroke="none" transform="matrix(1 0 0 1 1120 735 )" />
  </g>
</svg>