<?xml version="1.0" encoding="utf-8"?>
<svg version="1.1" xmlns:xlink="http://www.w3.org/1999/xlink" width="46px" height="46px" xmlns="http://www.w3.org/2000/svg">
  <g transform="matrix(1 0 0 1 -1533 -786 )">
    <path d="M 23 0  C 35.70174972216289 0  46 10.298250277837116  46 23  C 46 35.70174972216289  35.70174972216289 46  23 46  C 10.298250277837116 46  0 35.70174972216289  0 23  C 0 10.298250277837116  10.298250277837116 0  23 0  Z M 32.40316692988078 13.845999956130981  C 31.538750253617767 13.861333290192611  30.21241714557012 14.323250323534012  23.824167251586914 16.979750394821167  C 21.587417145570118 17.909333755572636  17.115833461284637 19.835583517948788  10.411333640416464 22.756583611170452  C 9.32266693810622 23.189750270297132  8.751500067145875 23.613333805153772  8.699750065803528 24.02733381589254  C 8.611583398965498 24.728833809494976  9.489416619141897 25.004833683371544  10.681583245595297 25.378583669662476  C 10.844499913975596 25.430333671004817  11.013166594008606 25.482082969043404  11.18566660086314 25.53958296775818  C 12.360583220918976 25.920999636252716  13.939917070170246 26.367582939254746  14.760250409444176 26.38483293851217  C 15.505833740035694 26.4001662725738  16.33766715973616 26.093500499924026  17.255750497182213 25.46483381589254  C 23.519416948159538 21.23475044965744  26.752833584323525 19.097665862801176  26.95600024859111 19.05166586240133  C 27.099750254303217 19.01908252729724  27.2990828063339 18.976916182165347  27.433249473571777 19.097666184107464  C 27.567416140809655 19.21649951549868  27.554000833925485 19.442665976472203  27.54058416684469 19.50399931271871  C 27.45241750000666 19.873915986468397  24.01391663650672 23.072834109266594  22.23141662279765 24.72883415222168  C 21.67558330545823 25.24441747367382  21.28266719200959 25.610500263671085  21.20216719309489 25.694833596547447  C 21.022000532597303 25.880750268697742  20.83799948853751 26.059000801295042  20.66166615486145 26.22958413759868  C 19.56916616857052 27.27991742889087  18.752666513125103 28.069584096471473  20.70766647656759 29.35758407910665  C 21.646833161513012 29.976667438944183  22.398166018227737 30.48841730505228  23.147582689921066 30.998250643412277  C 23.965999330083534 31.55600065986316  24.782500699162487 32.111831863721214  25.840500672658287 32.80566517512004  C 26.108834007134043 32.9819985087961  26.365666832774878 33.1640831536303  26.616750160853073 33.34233315785726  C 27.569333511094257 34.02274980396032  28.426084076364837 34.6322482759133  29.48408404986064 34.53641494115194  C 30.0974173694849 34.478914942437164  30.733748308072492 33.90199913084507  31.055748303731285 32.17891581853231  C 31.816664998730026 28.104082624117538  33.31549948453904 19.279750486214958  33.66241614023845 15.641917149225872  C 33.68352766094419 15.339877185722194  33.67066850668441 15.036421646674476  33.62408192952474 14.737250248591106  C 33.596195672871545 14.49561749522885  33.47853249435624 14.273284582421184  33.294417222340904 14.114333033561707  C 33.02033387621244 13.890083036075033  32.59483359940351 13.842166622615572  32.40316692988078 13.845999956130981  Z " fill-rule="nonzero" fill="#000000" stroke="none" transform="matrix(1 0 0 1 1533 786 )" />
  </g>
</svg>