<?xml version="1.0" encoding="utf-8"?>
<svg version="1.1" xmlns:xlink="http://www.w3.org/1999/xlink" width="14px" height="23px" xmlns="http://www.w3.org/2000/svg">
  <g transform="matrix(1 0 0 1 -206 -958 )">
    <path d="M 13.759450171821305 1.3827655310621232  C 13.919816723940437 1.5364061456245799  14 1.7130928523714064  14 1.9128256513026058  C 14 2.1125584502338  13.919816723940437 2.289245156980627  13.759450171821305 2.442885771543086  L 4.305841924398626 11.5  L 13.759450171821305 20.557114228456914  C 13.919816723940437 20.710754843019373  14 20.887441549766198  14 21.087174348697395  C 14 21.28690714762859  13.919816723940437 21.463593854375414  13.759450171821305 21.617234468937877  L 12.556701030927835 22.769539078156313  C 12.396334478808706 22.923179692718772  12.211912943871708 23  12.003436426116838 23  C 11.794959908361971 23  11.610538373424973 22.923179692718772  11.450171821305842 22.769539078156313  L 0.2405498281786942 12.03006012024048  C 0.08018327605956477 11.87641950567802  0 11.699732798931194  0 11.5  C 0 11.300267201068802  0.08018327605956477 11.123580494321976  0.2405498281786942 10.96993987975952  L 11.450171821305842 0.2304609218436876  C 11.610538373424973 0.07682030728122835  11.794959908361971 0  12.003436426116838 0  C 12.211912943871708 0  12.396334478808706 0.07682030728122835  12.556701030927835 0.2304609218436876  L 13.759450171821305 1.3827655310621232  Z " fill-rule="nonzero" fill="#000000" stroke="none" transform="matrix(1 0 0 1 206 958 )" />
  </g>
</svg>