<?xml version="1.0" encoding="utf-8"?>
<svg version="1.1" xmlns:xlink="http://www.w3.org/1999/xlink" width="11px" height="30px" xmlns="http://www.w3.org/2000/svg">
  <g transform="matrix(1 0 0 1 -175 -866 )">
    <path d="M 10.810996563573882 1.8036072144288562  C 10.93699885452463 2.004008016032061  11 2.2344689378757474  11 2.4949899799599207  C 11 2.755511022044087  10.93699885452463 2.9859719438877743  10.810996563573882 3.186372745490982  L 3.383161512027492 15  L 10.810996563573882 26.81362725450902  C 10.93699885452463 27.014028056112227  11 27.24448897795591  11 27.50501002004008  C 11 27.76553106212425  10.93699885452463 27.995991983967933  10.810996563573882 28.196392785571145  L 9.8659793814433 29.69939879759519  C 9.739977090492555 29.8997995991984  9.5950744558992 30  9.43127147766323 30  C 9.267468499427263 30  9.122565864833907 29.8997995991984  8.996563573883162 29.69939879759519  L 0.18900343642611686 15.691382765531062  C 0.06300114547537232 15.490981963927853  0 15.260521042084166  0 15  C 0 14.73947895791583  0.06300114547537232 14.509018036072144  0.18900343642611686 14.308617234468938  L 8.996563573883162 0.3006012024048099  C 9.122565864833907 0.1002004008016022  9.267468499427263 0  9.43127147766323 0  C 9.5950744558992 0  9.739977090492555 0.1002004008016022  9.8659793814433 0.3006012024048099  L 10.810996563573882 1.8036072144288562  Z " fill-rule="nonzero" fill="#000000" stroke="none" transform="matrix(1 0 0 1 175 866 )" />
  </g>
</svg>