<?xml version="1.0" encoding="utf-8"?>
<svg version="1.1" xmlns:xlink="http://www.w3.org/1999/xlink" width="11px" height="30px" xmlns="http://www.w3.org/2000/svg">
  <g transform="matrix(1 0 0 1 -1017 -866 )">
    <path d="M 10.810996563573882 14.308617234468938  C 10.93699885452463 14.509018036072144  11 14.73947895791583  11 15  C 11 15.260521042084166  10.93699885452463 15.490981963927853  10.810996563573882 15.691382765531062  L 2.0034364261168385 29.69939879759519  C 1.877434135166094 29.8997995991984  1.7325315005727377 30  1.5687285223367697 30  C 1.404925544100802 30  1.2600229095074458 29.8997995991984  1.134020618556701 29.69939879759519  L 0.18900343642611686 28.196392785571145  C 0.06300114547537232 27.995991983967933  0 27.76553106212425  0 27.50501002004008  C 0 27.24448897795591  0.06300114547537232 27.014028056112227  0.18900343642611686 26.81362725450902  L 7.616838487972508 15  L 0.18900343642611686 3.186372745490982  C 0.06300114547537232 2.9859719438877743  0 2.755511022044087  0 2.4949899799599207  C 0 2.2344689378757474  0.06300114547537232 2.004008016032061  0.18900343642611686 1.8036072144288562  L 1.134020618556701 0.3006012024048099  C 1.2600229095074458 0.1002004008016022  1.404925544100802 0  1.5687285223367697 0  C 1.7325315005727377 0  1.877434135166094 0.1002004008016022  2.0034364261168385 0.3006012024048099  L 10.810996563573882 14.308617234468938  Z " fill-rule="nonzero" fill="#000000" stroke="none" transform="matrix(1 0 0 1 1017 866 )" />
  </g>
</svg>