<?xml version="1.0" encoding="utf-8"?>
<svg version="1.1" xmlns:xlink="http://www.w3.org/1999/xlink" width="14px" height="23px" xmlns="http://www.w3.org/2000/svg">
  <g transform="matrix(1 0 0 1 -1140 -958 )">
    <path d="M 13.759450171821305 10.96993987975952  C 13.919816723940437 11.123580494321976  14 11.300267201068802  14 11.5  C 14 11.699732798931194  13.919816723940437 11.87641950567802  13.759450171821305 12.03006012024048  L 2.549828178694158 22.769539078156313  C 2.3894616265750286 22.923179692718772  2.20504009163803 23  1.9965635738831615 23  C 1.7880870561282936 23  1.6036655211912945 22.923179692718772  1.443298969072165 22.769539078156313  L 0.2405498281786942 21.617234468937877  C 0.08018327605956477 21.463593854375414  0 21.28690714762859  0 21.087174348697395  C 0 20.887441549766198  0.08018327605956477 20.710754843019373  0.2405498281786942 20.557114228456914  L 9.694158075601374 11.5  L 0.2405498281786942 2.442885771543086  C 0.08018327605956477 2.289245156980627  0 2.1125584502338  0 1.9128256513026058  C 0 1.7130928523714064  0.08018327605956477 1.5364061456245799  0.2405498281786942 1.3827655310621232  L 1.443298969072165 0.2304609218436876  C 1.6036655211912945 0.07682030728122835  1.7880870561282936 0  1.9965635738831615 0  C 2.20504009163803 0  2.3894616265750286 0.07682030728122835  2.549828178694158 0.2304609218436876  L 13.759450171821305 10.96993987975952  Z " fill-rule="nonzero" fill="#000000" stroke="none" transform="matrix(1 0 0 1 1140 958 )" />
  </g>
</svg>