<?xml version="1.0" encoding="utf-8"?>
<svg version="1.1" xmlns:xlink="http://www.w3.org/1999/xlink" width="406px" height="277px" xmlns="http://www.w3.org/2000/svg">
  <defs>
    <mask fill="white" id="clip281">
      <path d="M 9.995314396710036 1.5498149520269593  C 13.37688844992345 0.44790897353965625  15.581468711336296 0.4479089735396562  23.436756331607167 0.4479089735396562  C 23.436756331607167 0.4479089735396562  382.5632489572958 0.4479089735396562  382.5632489572958 0.4479089735396562  C 390.41853657756667 0.4479089735396562  392.622698574902 0.44790897353965625  396.0046785514193 1.5498149520269593  C 400.0029666794249 2.965838957719487  403.170573865275 6.035553087991579  404.6317678504731 9.90995229784288  C 405.7689738862543 13.18741623933217  405.768980717754 15.323362274910043  405.768980717754 22.935876598065192  C 405.768980717754 44.01890042180869  405.768980717754 254.0641302357013  405.768980717754 254.0641302357013  C 405.768980717754 261.6766445588564  405.7689738862543 263.8125905944343  404.6317678504731 267.0900545359236  C 403.170573865275 270.96445374577496  400.0029666794249 274.0341597609493  396.0046785514193 275.4501837666418  C 392.622698574902 276.5520897451291  390.41853657756667 276.5520876095771  382.5632489572958 276.5520876095771  C 360.8073324378268 276.5520876095771  23.436756331607167 276.5520876095771  23.436756331607167 276.5520876095771  C 15.581468711336296 276.5520876095771  13.37688844992345 276.5520897451291  9.995314396710036 275.4501837666418  C 5.99702626870448 274.0341597609493  2.8294140143223494 270.96445374577496  1.3682200291242257 267.0900545359236  C 0.23101399334303413 263.8125905944343  0.23101399334303413 261.6766445588564  0.23101399334303413 254.0641302357013  C 0.23101399334303413 232.9811064119578  0.23101399334303413 22.935876598065192  0.23101399334303413 22.935876598065192  C 0.23101399334303413 15.323362274910043  0.23101399334303413 13.18741623933217  1.3682200291242257 9.90995229784288  C 2.8294140143223494 6.035553087991579  5.99702626870448 2.965838957719487  9.995314396710036 1.5498149520269593  Z " fill-rule="evenodd" />
    </mask>
  </defs>
  <g transform="matrix(1 0 0 1 -1103 -1399 )">
    <path d="M 9.995314396710036 1.5498149520269593  C 13.37688844992345 0.44790897353965625  15.581468711336296 0.4479089735396562  23.436756331607167 0.4479089735396562  C 23.436756331607167 0.4479089735396562  382.5632489572958 0.4479089735396562  382.5632489572958 0.4479089735396562  C 390.41853657756667 0.4479089735396562  392.622698574902 0.44790897353965625  396.0046785514193 1.5498149520269593  C 400.0029666794249 2.965838957719487  403.170573865275 6.035553087991579  404.6317678504731 9.90995229784288  C 405.7689738862543 13.18741623933217  405.768980717754 15.323362274910043  405.768980717754 22.935876598065192  C 405.768980717754 44.01890042180869  405.768980717754 254.0641302357013  405.768980717754 254.0641302357013  C 405.768980717754 261.6766445588564  405.7689738862543 263.8125905944343  404.6317678504731 267.0900545359236  C 403.170573865275 270.96445374577496  400.0029666794249 274.0341597609493  396.0046785514193 275.4501837666418  C 392.622698574902 276.5520897451291  390.41853657756667 276.5520876095771  382.5632489572958 276.5520876095771  C 360.8073324378268 276.5520876095771  23.436756331607167 276.5520876095771  23.436756331607167 276.5520876095771  C 15.581468711336296 276.5520876095771  13.37688844992345 276.5520897451291  9.995314396710036 275.4501837666418  C 5.99702626870448 274.0341597609493  2.8294140143223494 270.96445374577496  1.3682200291242257 267.0900545359236  C 0.23101399334303413 263.8125905944343  0.23101399334303413 261.6766445588564  0.23101399334303413 254.0641302357013  C 0.23101399334303413 232.9811064119578  0.23101399334303413 22.935876598065192  0.23101399334303413 22.935876598065192  C 0.23101399334303413 15.323362274910043  0.23101399334303413 13.18741623933217  1.3682200291242257 9.90995229784288  C 2.8294140143223494 6.035553087991579  5.99702626870448 2.965838957719487  9.995314396710036 1.5498149520269593  Z " fill-rule="nonzero" fill="#ffffff" stroke="none" fill-opacity="0" transform="matrix(1 0 0 1 1103 1399 )" />
    <path d="M 9.995314396710036 1.5498149520269593  C 13.37688844992345 0.44790897353965625  15.581468711336296 0.4479089735396562  23.436756331607167 0.4479089735396562  C 23.436756331607167 0.4479089735396562  382.5632489572958 0.4479089735396562  382.5632489572958 0.4479089735396562  C 390.41853657756667 0.4479089735396562  392.622698574902 0.44790897353965625  396.0046785514193 1.5498149520269593  C 400.0029666794249 2.965838957719487  403.170573865275 6.035553087991579  404.6317678504731 9.90995229784288  C 405.7689738862543 13.18741623933217  405.768980717754 15.323362274910043  405.768980717754 22.935876598065192  C 405.768980717754 44.01890042180869  405.768980717754 254.0641302357013  405.768980717754 254.0641302357013  C 405.768980717754 261.6766445588564  405.7689738862543 263.8125905944343  404.6317678504731 267.0900545359236  C 403.170573865275 270.96445374577496  400.0029666794249 274.0341597609493  396.0046785514193 275.4501837666418  C 392.622698574902 276.5520897451291  390.41853657756667 276.5520876095771  382.5632489572958 276.5520876095771  C 360.8073324378268 276.5520876095771  23.436756331607167 276.5520876095771  23.436756331607167 276.5520876095771  C 15.581468711336296 276.5520876095771  13.37688844992345 276.5520897451291  9.995314396710036 275.4501837666418  C 5.99702626870448 274.0341597609493  2.8294140143223494 270.96445374577496  1.3682200291242257 267.0900545359236  C 0.23101399334303413 263.8125905944343  0.23101399334303413 261.6766445588564  0.23101399334303413 254.0641302357013  C 0.23101399334303413 232.9811064119578  0.23101399334303413 22.935876598065192  0.23101399334303413 22.935876598065192  C 0.23101399334303413 15.323362274910043  0.23101399334303413 13.18741623933217  1.3682200291242257 9.90995229784288  C 2.8294140143223494 6.035553087991579  5.99702626870448 2.965838957719487  9.995314396710036 1.5498149520269593  Z " stroke-width="6" stroke="#e7e7e7" fill="none" transform="matrix(1 0 0 1 1103 1399 )" mask="url(#clip281)" />
  </g>
</svg>