<?xml version="1.0" encoding="utf-8"?>
<svg version="1.1" xmlns:xlink="http://www.w3.org/1999/xlink" width="409px" height="280px" xmlns="http://www.w3.org/2000/svg">
  <defs>
    <linearGradient gradientUnits="userSpaceOnUse" x1="204.5" y1="-8.572527968096175E-15" x2="204.5" y2="280" id="LinearGradient278">
      <stop id="Stop279" stop-color="#f1f1f1" offset="0.88" />
      <stop id="Stop280" stop-color="#e4e4e4" offset="1" />
    </linearGradient>
  </defs>
  <g transform="matrix(1 0 0 1 -1101 -1398 )">
    <path d="M 10.069171399641391 1.5665999515073954  C 13.475732453248009 0.452759973253082  15.696602716592478 0.452759973253082  23.609934334057467 0.452759973253082  C 23.609934334057467 0.452759973253082  385.3900709939261 0.452759973253082  385.3900709939261 0.452759973253082  C 393.3034026113911 0.452759973253082  395.5238515200368 0.452759973253082  398.9308214963806 1.5665999515073954  C 402.9586536253319 2.9979599572615747  406.1496667756096 6.100920088944555  407.6216577606983 10.017280301068613  C 408.7672667967439 13.330240241924214  408.7672736787226 15.489319267057079  408.7672736787226 23.184279593712105  C 408.7672736787226 44.495639415546684  408.7672736787226 256.8157273140663  408.7672736787226 256.8157273140663  C 408.7672736787226 264.5106876407213  408.7672667967439 266.6697666658542  407.6216577606983 269.9827266067098  C 406.1496667756096 273.8990868188339  402.9586536253319 277.0020387475299  398.9308214963806 278.4333987532841  C 395.5238515200368 279.54723873153847  393.3034026113911 279.5472365728577  385.3900709939261 279.5472365728577  C 363.47339647061864 279.5472365728577  23.609934334057467 279.5472365728577  23.609934334057467 279.5472365728577  C 15.696602716592478 279.5472365728577  13.475732453248009 279.54723873153847  10.069171399641391 278.4333987532841  C 6.041339270689981 277.0020387475299  2.8503210144281796 273.8990868188339  1.3783300293394294 269.9827266067098  C 0.2327209932938447 266.6697666658542  0.2327209932938447 264.5106876407213  0.2327209932938447 256.8157273140663  C 0.2327209932938447 235.5043674922317  0.2327209932938447 23.184279593712105  0.2327209932938447 23.184279593712105  C 0.2327209932938447 15.489319267057079  0.2327209932938447 13.330240241924214  1.3783300293394294 10.017280301068613  C 2.8503210144281796 6.100920088944555  6.041339270689981 2.9979599572615747  10.069171399641391 1.5665999515073954  Z " fill-rule="nonzero" fill="url(#LinearGradient278)" stroke="none" transform="matrix(1 0 0 1 1101 1398 )" />
  </g>
</svg>