<?xml version="1.0" encoding="utf-8"?>
<svg version="1.1" xmlns:xlink="http://www.w3.org/1999/xlink" width="122px" height="171px" xmlns="http://www.w3.org/2000/svg">
  <defs>
    <mask fill="white" id="clip299">
      <path d="M 0 164.99999999999997  C 0 164.99999999999997  0 5.999997496604919  0 5.999997496604919  C 0 2.6862891912460327  2.680798255592767 0  5.987730061349693 0  C 5.987730061349693 0  116.01226993865032 0  116.01226993865032 0  C 119.31920174440724 0  122 2.686291694641113  122 6  C 122 6  122 164.99999999999997  122 164.99999999999997  C 122 168.31370830535886  119.31920174440724 171  116.01226993865032 171  C 116.01226993865032 171  5.98773291652188 171  5.98773291652188 171  C 2.6808011107649543 171  0 168.31370830535886  0 164.99999999999997  Z " fill-rule="evenodd" />
    </mask>
  </defs>
  <g transform="matrix(1 0 0 1 -1641 -1371 )">
    <path d="M 0 164.99999999999997  C 0 164.99999999999997  0 5.999997496604919  0 5.999997496604919  C 0 2.6862891912460327  2.680798255592767 0  5.987730061349693 0  C 5.987730061349693 0  116.01226993865032 0  116.01226993865032 0  C 119.31920174440724 0  122 2.686291694641113  122 6  C 122 6  122 164.99999999999997  122 164.99999999999997  C 122 168.31370830535886  119.31920174440724 171  116.01226993865032 171  C 116.01226993865032 171  5.98773291652188 171  5.98773291652188 171  C 2.6808011107649543 171  0 168.31370830535886  0 164.99999999999997  Z " fill-rule="nonzero" fill="#ffffff" stroke="none" fill-opacity="0" transform="matrix(1 0 0 1 1641 1371 )" />
    <path d="M 0 164.99999999999997  C 0 164.99999999999997  0 5.999997496604919  0 5.999997496604919  C 0 2.6862891912460327  2.680798255592767 0  5.987730061349693 0  C 5.987730061349693 0  116.01226993865032 0  116.01226993865032 0  C 119.31920174440724 0  122 2.686291694641113  122 6  C 122 6  122 164.99999999999997  122 164.99999999999997  C 122 168.31370830535886  119.31920174440724 171  116.01226993865032 171  C 116.01226993865032 171  5.98773291652188 171  5.98773291652188 171  C 2.6808011107649543 171  0 168.31370830535886  0 164.99999999999997  Z " stroke-width="6" stroke="#e7e7e7" fill="none" transform="matrix(1 0 0 1 1641 1371 )" mask="url(#clip299)" />
  </g>
</svg>