<?xml version="1.0" encoding="utf-8"?>
<svg version="1.1" xmlns:xlink="http://www.w3.org/1999/xlink" width="123px" height="172px" xmlns="http://www.w3.org/2000/svg">
  <g transform="matrix(1 0 0 1 -1641 -1370 )">
    <path d="M 0 165.96491228070175  C 0 165.96491228070175  0 6.035085201263428  0 6.035085201263428  C 0 2.701998484762092  2.702772011786151 0  6.03680981595092 0  C 6.03680981595092 0  116.96319018404907 0  116.96319018404907 0  C 120.29722798821385 0  123 2.7020010027969095  123 6.035087719298245  C 123 6.035087719298245  123 165.96491228070175  123 165.96491228070175  C 123 169.29799899720308  120.29722798821385 172  116.96319018404907 172  C 116.96319018404907 172  6.036812694526157 172  6.036812694526157 172  C 2.702774890361388 172  0 169.29799899720308  0 165.96491228070175  Z " fill-rule="nonzero" fill="#f9f9f9" stroke="none" transform="matrix(1 0 0 1 1641 1370 )" />
  </g>
</svg>