<?xml version="1.0" encoding="utf-8"?>
<svg version="1.1" xmlns:xlink="http://www.w3.org/1999/xlink" width="150px" height="16px" xmlns="http://www.w3.org/2000/svg">
  <defs>
    <linearGradient gradientUnits="userSpaceOnUse" x1="69.98602787679069" y1="3.9967928978441587" x2="69.98603192504862" y2="6.4234176490226425" id="LinearGradient273">
      <stop id="Stop274" stop-color="#d4d4d4" offset="0.47" />
      <stop id="Stop275" stop-color="#b4b4b4" offset="1" />
    </linearGradient>
    <filter x="1498px" y="1471px" width="150px" height="16px" filterUnits="userSpaceOnUse" id="filter276">
      <feOffset dx="0" dy="3" in="SourceAlpha" result="shadowOffsetInner" />
      <feGaussianBlur stdDeviation="2.5" in="shadowOffsetInner" result="shadowGaussian" />
      <feComposite in2="shadowGaussian" operator="atop" in="SourceAlpha" result="shadowComposite" />
      <feColorMatrix type="matrix" values="0 0 0 0 0  0 0 0 0 0  0 0 0 0 0  0 0 0 0.3803921568627451 0  " in="shadowComposite" />
    </filter>
    <g id="widget277">
      <path d="M 7.482016235475959 5.995189711624101  C 5.358738908780049 6.042770400844658  1.6428132127724782 5.709704487261049  0.4486584771861895 4.425020977627312  C -0.2842334971982025 3.6365684830820406  -0.21485053213209576 1.284683509633736  1.3775108994309277 0  C 1.3775108994309277 0  138.59491485435203 0  138.59491485435203 0  C 140.18728096854673 1.284683509633736  140.31988904816987 3.140337467993577  139.52377078857052 4.425020977627312  C 138.700858763555 5.752939363539785  134.61366748168808 6.042770400844658  132.49039116745308 5.995189711624101  C 132.49039116745308 5.995189711624101  7.482016235475959 5.995189711624101  7.482016235475959 5.995189711624101  Z " fill-rule="nonzero" fill="url(#LinearGradient273)" stroke="none" transform="matrix(1 0 0 1 1503 1473 )" />
    </g>
  </defs>
  <g transform="matrix(1 0 0 1 -1498 -1471 )">
    <use xlink:href="#widget277" filter="url(#filter276)" />
    <use xlink:href="#widget277" />
  </g>
</svg>