<?xml version="1.0" encoding="utf-8"?>
<svg version="1.1" xmlns:xlink="http://www.w3.org/1999/xlink" width="139px" height="50px" xmlns="http://www.w3.org/2000/svg">
  <g transform="matrix(1 0 0 1 -1503 -1426 )">
    <path d="M 77.17365605090805 0  C 77.17365605090805 0  22.66425739457829 0  22.66425739457829 0  C 22.66425739457829 0  18.562901291988826 29.338662897492  17.37193141616364 32.496187155518044  C 16.18096154033846 35.653711413544094  10.360015469566529 39.07436269307231  9.301429751215814 39.86374375757881  C 8.242844032865102 40.653124822085324  4.538367485477094 43.28439503710704  2.9508160805615384 44.4684666338668  C 1.363264675645983 45.65253823062657  -0.5966385904274679 47.01715294703789  0.1725079414838578 48.54693546715044  C 0.8339850964232902 49.862570574661284  5.067757247299914 50.03798859030304  7.184620690039803 49.99413408541237  C 7.184620690039803 49.99413408541237  77.17365605090805 49.99413408541237  77.17365605090805 49.99413408541237  C 77.17365605090805 49.99413408541237  131.8153793099602 49.99413408541237  131.8153793099602 49.99413408541237  C 133.9322427527001 50.03798859030304  138.1660199821334 49.862570574661284  138.82749713707284 48.54693546715044  C 139.59664366898417 47.01715294703789  137.63673658610725 45.65253823062657  136.0491851811917 44.4684666338668  C 134.46163377627613 43.28439503710704  130.75715899534265 40.653124822085324  129.69857327699194 39.86374375757881  C 128.6399875586412 39.07436269307231  122.81903845966157 35.653711413544094  121.62806858383638 32.496187155518044  C 120.43709870801118 29.338662897492  116.33574664303202 0  116.33574664303202 0  C 116.33574664303202 0  77.17365605090805 0  77.17365605090805 0  Z " fill-rule="nonzero" fill="#f5f5f5" stroke="none" transform="matrix(1 0 0 1 1503 1426 )" />
  </g>
</svg>