<?xml version="1.0" encoding="utf-8"?>
<svg version="1.1" xmlns:xlink="http://www.w3.org/1999/xlink" width="379px" height="230px" xmlns="http://www.w3.org/2000/svg">
  <defs>
    <mask fill="white" id="clip294">
      <path d="M 0 230  C 0 230  0 0  0 0  C 0 0  379 0  379 0  C 379 0  379 230  379 230  C 379 230  0 230  0 230  Z " fill-rule="evenodd" />
    </mask>
  </defs>
  <g transform="matrix(1 0 0 1 -1117 -1416 )">
    <path d="M 0 230  C 0 230  0 0  0 0  C 0 0  379 0  379 0  C 379 0  379 230  379 230  C 379 230  0 230  0 230  Z " fill-rule="nonzero" fill="#ffffff" stroke="none" fill-opacity="0" transform="matrix(1 0 0 1 1117 1416 )" />
    <path d="M 0 230  C 0 230  0 0  0 0  C 0 0  379 0  379 0  C 379 0  379 230  379 230  C 379 230  0 230  0 230  Z " stroke-width="6.130196571350098" stroke="#e1e1e1" fill="none" transform="matrix(1 0 0 1 1117 1416 )" mask="url(#clip294)" />
  </g>
</svg>