<?xml version="1.0" encoding="utf-8"?>
<svg version="1.1" xmlns:xlink="http://www.w3.org/1999/xlink" width="97.09183120727539px" height="161.0918312072754px" xmlns="http://www.w3.org/2000/svg">
  <defs>
    <filter x="1559px" y="1414px" width="98px" height="163px" filterUnits="userSpaceOnUse" id="filter307">
      <feOffset dx="0" dy="5.53000020980835" in="SourceAlpha" result="shadowOffsetInner" />
      <feGaussianBlur stdDeviation="8.772957801818848" in="shadowOffsetInner" result="shadowGaussian" />
      <feComposite in2="shadowGaussian" operator="atop" in="SourceAlpha" result="shadowComposite" />
      <feColorMatrix type="matrix" values="0 0 0 0 0  0 0 0 0 0  0 0 0 0 0  0 0 0 0.03137254901960784 0  " in="shadowComposite" />
    </filter>
    <g id="widget308">
      <path d="M 0 116.5058198691247  C 0 116.5058198691247  0 9.494181249971577  0 9.494181249971577  C 0 4.250692525204178  4.227509693818933 0  9.442406472598805 0  C 9.442406472598805 0  52.55759464039522 0  52.55759464039522 0  C 57.7724914191751 0  62.000000000000014 4.250688048819028  62.000000000000014 9.494176773586426  C 62.000000000000014 9.494176773586426  62.000000000000014 116.5058198691247  62.000000000000014 116.5058198691247  C 62.000000000000014 121.74930859389211  57.7724914191751 125.99999999999999  52.55759464039522 125.99999999999999  C 52.55759464039522 125.99999999999999  9.442404246610755 125.99999999999999  9.442404246610755 125.99999999999999  C 4.227507467830883 125.99999999999999  0 121.74930859389211  0 116.5058198691247  Z " fill-rule="nonzero" fill="#f9fafa" stroke="none" transform="matrix(1 0 0 1 1577 1427 )" />
    </g>
  </defs>
  <g transform="matrix(1 0 0 1 -1559.4540843963623 -1414.9840846061707 )">
    <use xlink:href="#widget308" filter="url(#filter307)" />
    <use xlink:href="#widget308" />
  </g>
</svg>