<?xml version="1.0" encoding="utf-8"?>
<svg version="1.1" xmlns:xlink="http://www.w3.org/1999/xlink" width="21px" height="36px" xmlns="http://www.w3.org/2000/svg">
  <g transform="matrix(1 0 0 1 -218 -8378 )">
    <path d="M 20.639175257731956 2.1643286573146274  C 20.879725085910657 2.4048096192384727  21 2.681362725450897  21 2.993987975951905  C 21 3.3066132264529045  20.879725085910657 3.583166332665329  20.639175257731956 3.823647294589178  L 6.458762886597938 18  L 20.639175257731956 32.17635270541082  C 20.879725085910657 32.41683366733467  21 32.69338677354709  21 33.0060120240481  C 21 33.3186372745491  20.879725085910657 33.59519038076152  20.639175257731956 33.83567134268537  L 18.835051546391753 35.63927855711423  C 18.59450171821306 35.879759519038075  18.317869415807564 36  18.005154639175256 36  C 17.692439862542958 36  17.41580756013746 35.879759519038075  17.175257731958762 35.63927855711423  L 0.3608247422680413 18.829659318637272  C 0.12027491408934717 18.589178356713425  0 18.312625250501  0 18  C 0 17.687374749498996  0.12027491408934717 17.41082164328657  0.3608247422680413 17.170340681362728  L 17.175257731958762 0.3607214428857719  C 17.41580756013746 0.12024048096192264  17.692439862542958 0  18.005154639175256 0  C 18.317869415807564 0  18.59450171821306 0.12024048096192264  18.835051546391753 0.3607214428857719  L 20.639175257731956 2.1643286573146274  Z " fill-rule="nonzero" fill="#000000" stroke="none" transform="matrix(1 0 0 1 218 8378 )" />
  </g>
</svg>