<?xml version="1.0" encoding="utf-8"?>
<svg version="1.1" xmlns:xlink="http://www.w3.org/1999/xlink" width="21px" height="36px" xmlns="http://www.w3.org/2000/svg">
  <g transform="matrix(1 0 0 1 -1129 -8377 )">
    <path d="M 20.639175257731956 17.170340681362728  C 20.879725085910657 17.41082164328657  21 17.687374749498996  21 18  C 21 18.312625250501  20.879725085910657 18.589178356713425  20.639175257731956 18.829659318637272  L 3.824742268041237 35.63927855711423  C 3.584192439862543 35.879759519038075  3.3075601374570445 36  2.9948453608247423 36  C 2.68213058419244 36  2.405498281786942 35.879759519038075  2.1649484536082473 35.63927855711423  L 0.3608247422680413 33.83567134268537  C 0.12027491408934717 33.59519038076152  0 33.3186372745491  0 33.0060120240481  C 0 32.69338677354709  0.12027491408934717 32.41683366733467  0.3608247422680413 32.17635270541082  L 14.541237113402062 18  L 0.3608247422680413 3.823647294589178  C 0.12027491408934717 3.583166332665329  0 3.3066132264529045  0 2.993987975951905  C 0 2.681362725450897  0.12027491408934717 2.4048096192384727  0.3608247422680413 2.1643286573146274  L 2.1649484536082473 0.3607214428857719  C 2.405498281786942 0.12024048096192264  2.68213058419244 0  2.9948453608247423 0  C 3.3075601374570445 0  3.584192439862543 0.12024048096192264  3.824742268041237 0.3607214428857719  L 20.639175257731956 17.170340681362728  Z " fill-rule="nonzero" fill="#000000" stroke="none" transform="matrix(1 0 0 1 1129 8377 )" />
  </g>
</svg>