<?xml version="1.0" encoding="utf-8"?>
<svg version="1.1" xmlns:xlink="http://www.w3.org/1999/xlink" width="18px" height="31px" xmlns="http://www.w3.org/2000/svg">
  <g transform="matrix(1 0 0 1 -968 -6922 )">
    <path d="M 17.690721649484534 14.78557114228457  C 17.89690721649485 14.99265197060788  18 15.23079492317969  18 15.5  C 18 15.769205076820306  17.89690721649485 16.007348029392116  17.690721649484534 16.21442885771543  L 3.2783505154639174 30.68937875751503  C 3.0721649484536084 30.896459585838343  2.8350515463917523 31  2.5670103092783503 31  C 2.2989690721649487 31  2.061855670103093 30.896459585838343  1.8556701030927834 30.68937875751503  L 0.30927835051546393 29.136272545090183  C 0.10309278350515472 28.929191716766862  0 28.691048764195056  0 28.42184368737475  C 0 28.15263861055444  0.10309278350515472 27.914495657982634  0.30927835051546393 27.707414829659317  L 12.463917525773196 15.5  L 0.30927835051546393 3.292585170340681  C 0.10309278350515472 3.0855043420173667  0 2.8473613894455565  0 2.5781563126252514  C 0 2.308951235804939  0.10309278350515472 2.0708082832331294  0.30927835051546393 1.8637274549098182  L 1.8556701030927834 0.31062124248497025  C 2.061855670103093 0.1035404141616556  2.2989690721649487 0  2.5670103092783503 0  C 2.8350515463917523 0  3.0721649484536084 0.1035404141616556  3.2783505154639174 0.31062124248497025  L 17.690721649484534 14.78557114228457  Z " fill-rule="nonzero" fill="#000000" stroke="none" transform="matrix(1 0 0 1 968 6922 )" />
  </g>
</svg>