<?xml version="1.0" encoding="utf-8"?>
<svg version="1.1" xmlns:xlink="http://www.w3.org/1999/xlink" width="40px" height="45px" xmlns="http://www.w3.org/2000/svg">
  <g transform="matrix(1 0 0 1 -206 -1925 )">
    <path d="M 18.794838017862187 0  L 18.794838017862187 7.140862655639649  L 21.205381494787883 7.140862655639649  L 21.205381494787883 0  L 18.794612818355894 0  Z M 13.020467905430767 7.99387493133545  L 8.951621231718462 2.145937442779541  L 6.976642034238514 3.5373001098632812  L 11.046570348003755 9.385275077819825  L 13.020467905430767 7.99387493133545  Z M 31.048114898152953 2.145937442779541  L 26.979378549451308 7.99391269683838  L 28.95357523551546 9.385312271118165  L 33.023428482778606 3.5373001098632812  L 31.048449285298652 2.145937442779541  Z M 19.99960646954961 9.094650077819825  C 14.102583948234138 9.094650077819825  9.322190431432208 12.69776201248169  9.322190431432208 17.143087005615236  C 9.322190431432208 17.143087005615236  15.388602220785595 35.62863693237305  15.388602220785595 35.62863693237305  L 24.611653687744276 35.62863693237305  C 24.611653687744276 35.62863693237305  30.67754342369672 17.143087005615236  30.67754342369672 17.143087005615236  C 30.67754342369672 12.69783697128296  25.897449035531928 9.094650077819825  20.000166056201603 9.094650077819825  Z M 0.8236158703778939 11.23773765563965  L 0 13.518262481689455  L 6.665591471717444 15.960037994384766  L 7.49226360079907 13.680600357055667  L 0.8234668747449445 11.23773765563965  Z M 39.176120117322114 11.23773765563965  L 32.5072848628171 13.680788040161133  L 33.331162470752496 15.960487747192383  L 39.99999999999999 13.518300247192384  L 39.176120117322114 11.23773765563965  Z M 7.170256172400002 21.663038635253905  L 0.31641710656395144 23.51276321411133  L 0.938293885128234 25.853924560546876  L 7.792132666621474 24.006861877441406  L 7.170368203467525 21.663038635253905  Z M 32.82947938878579 21.663038635253905  L 32.20804931277754 24.006825256347657  L 39.06189164855592 25.85358810424805  L 39.683319449821674 23.512387847900392  L 32.82947938878579 21.66296310424805  Z M 15.254134230734408 36.97619934082031  L 15.254134230734408 40.18942565917969  L 24.74615921104651 40.18942565917969  L 24.74615921104651 36.976686859130865  L 15.254171763985457 36.976686859130865  Z M 15.254134230734408 41.786773681640625  L 15.254134230734408 45  L 24.74615921104651 45  L 24.74615921104651 41.78730010986328  L 15.254171763985457 41.78730010986328  Z " fill-rule="nonzero" fill="#000000" stroke="none" transform="matrix(1 0 0 1 206 1925 )" />
  </g>
</svg>