<?xml version="1.0" encoding="utf-8"?>
<svg version="1.1" xmlns:xlink="http://www.w3.org/1999/xlink" width="66px" height="63px" xmlns="http://www.w3.org/2000/svg">
  <g transform="matrix(1 0 0 1 -1596 -3097 )">
    <path d="M 5.087499737739563 35.625131855840266  C 5.087499737739563 35.625131855840266  5.5 35.608695652173914  5.5 35.608695652173914  C 5.5 35.608695652173914  35.75 35.61143327795941  35.75 35.61143327795941  C 37.13711020350456 35.61168685502977  38.47290079295635 36.1339846201565  39.489765644073486 37.073685936305836  C 40.50663049519062 38.01338725245518  41.12946532852948 39.301089328268304  41.23349857330322 40.67882562720257  C 41.23349857330322 40.67882562720257  41.25 41.08969414752463  41.25 41.08969414752463  C 41.25 41.08969414752463  41.25 47.934782608695656  41.25 47.934782608695656  C 41.24724999986938 59.43912991233495  29.46075016260147 63  20.625 63  C 11.965250194072723 63  0.47025029733777046 59.58156351421191  0.013750314712524414 48.614084741343625  C 0.013750314712524414 48.614084741343625  0 47.934782608695656  0 47.934782608695656  C 0 47.934782608695656  0 41.08695652173913  0 41.08695652173913  C 0 38.19991298862126  2.243999630212784 35.83330576218989  5.087499737739563 35.625131855840266  Z M 60.5 35  L 41.85499811172485 35  C 41.85499811172485 35  60.5 35.608695652173914  60.5 35.608695652173914  C 63.39850005507469 35.608695652173914  65.77449858002365 37.84382702475009  65.98349857330322 40.67608800141708  C 65.98349857330322 40.67608800141708  66 41.08695652173913  66 41.08695652173913  C 66 41.08695652173913  66 46.56521739130435  66 46.56521739130435  C 65.99724999986938 56.86160886805991  56.567499816417694 60.26086956521739  49.5 60.26086956521739  C 46.590500086545944 60.26086956521739  43.28774982690811 59.67195545072142  40.40024995803833 58.274998955104664  C 42.46824988722801 55.82621636338857  43.81025008670986 52.709089325821914  43.98075008392334 48.786654430886976  C 43.98075008392334 48.786654430886976  44 47.934782608695656  44 47.934782608695656  C 44 47.934782608695656  44 41.08969414752463  44 41.08969414752463  C 44 39.16682452222575  43.31525184959173 37.41925829389821  42.20150184631348 36.02230179828147  C 42.20150184631348 36.02230179828147  41.85499811172485 35.608695652173914  41.85499811172485 35.608695652173914  L 60.5 35  Z M 20.625 0  C 22.611423820257187 0.00017988670254454536  24.578360214829445 0.39006661332171894  26.41350746154785 1.1473996522633927  C 28.24865470826626 1.9047326912050662  29.916074112057686 3.0146799476250363  31.320560216903687 4.413869090702223  C 32.72504632174969 5.81305823377941  33.83909423649311 7.474088026129681  34.599098920822144 9.30211935872617  C 35.35910360515118 11.130150691322658  35.75018056756744 13.089385286621425  35.75 15.067957629328191  C 35.74981943243256 17.046529972034953  35.35838558524847 19.005691914454754  34.59804725646973 20.833585614743445  C 33.83770892769098 22.661479315032132  32.7233557254076 24.322305516056392  31.31861424446106 25.721240292424742  C 29.91387276351452 27.12017506879309  28.246254205703735 28.229822244333185  26.410968780517578 28.986822957577917  C 24.57568335533142 29.74382367082264  22.608672708272934 30.13335490399028  20.622248888015747 30.13317502063254  C 16.61048474907875 30.132811729810786  12.763177573680878 28.545094759567924  9.926689982414246 25.719304623811144  C 7.0902023911476135 22.89351448805436  5.496885526652477 19.06112475498863  5.497250199317932 15.065217391304348  C 5.497614871983387 11.069310027620068  7.091631382703781 7.23720959995104  9.928634643554688 4.411933422088623  C 12.765637904405594 1.5866572442262068  16.613235861063004 -0.0003631094042133383  20.625 0  Z M 50.875 5.478260869565218  C 52.50010810792446 5.478260835453984  54.109306022524834 5.797084722829902  55.61071014404297 6.416528556657874  C 57.112114265561104 7.035972390485846  58.47632036358118 7.943904888370763  59.62544536590576 9.088487894638726  C 60.77457036823034 10.23307090090669  61.686105731874704 11.591888798319774  62.30800771713257 13.087358516195545  C 62.92990970239043 14.582828234071318  63.25 16.18566307036773  63.25 17.804347826086957  C 63.25 19.423032581806186  62.92990970239043 21.025867418102596  62.30800771713257 22.52133713597837  C 61.686105731874704 24.01680685385414  60.77457036823034 25.375623445148058  59.62544536590576 26.52020645141602  C 58.47632036358118 27.66478945768398  57.112114265561104 28.572724567807242  55.61071014404297 29.192168401635215  C 54.109306022524834 29.811612235463187  52.50010810792446 30.130434816719934  50.875 30.130434782608695  C 47.59294602274895 30.13043471371795  44.44531723856926 28.83179608116979  42.12455463409424 26.52020645141602  C 39.80379202961922 24.208616821662243  38.5 21.07342925797338  38.5 17.804347826086957  C 38.5 14.535266394200535  39.80379202961922 11.400077524392502  42.12455463409424 9.088487894638726  C 44.44531723856926 6.77689826488495  47.59294602274895 5.478260938455958  50.875 5.478260869565218  Z " fill-rule="nonzero" fill="#000000" stroke="none" transform="matrix(1 0 0 1 1596 3097 )" />
  </g>
</svg>