<?xml version="1.0" encoding="utf-8"?>
<svg version="1.1" xmlns:xlink="http://www.w3.org/1999/xlink" width="81px" height="81px" xmlns="http://www.w3.org/2000/svg">
  <g transform="matrix(1 0 0 1 -598 -3079 )">
    <path d="M 34.96707685177143 2.744459397470865  C 34.96707685177143 2.744459397470865  34.96084653414213 2.750699665261592  34.96084653414213 2.750699665261592  C 34.96084653414213 2.750699665261592  46.96753912705642 14.775134639226383  46.96753912705642 14.775134639226383  C 48.021510662940834 15.829710885197125  48.8084654028599 17.121349057773372  49.26279170696552 18.54235209521448  C 49.717118011071136 19.963355132655593  49.8256515433582 21.472541935283907  49.579334625831024 22.944078849491692  C 49.333017708303835 24.41561576369948  48.7389925890244 25.806855907513018  47.84678936004639 27.001800148772627  C 46.954586131068375 28.19674439003224  45.79005691065239 29.160762692164642  44.45030659895678 29.813474832630796  C 44.45030659895678 29.813474832630796  34.188230697925285 34.8179360277709  34.188230697925285 34.8179360277709  C 32.70483713768996 35.54182652491942  31.56875017514596 36.8254600793454  31.02923088807326 38.387202578725514  C 31.02923088807326 38.387202578725514  28.661537867326004 45.26365484750806  28.661537867326004 45.26365484750806  C 28.316533378683605 46.26412630176048  27.723082347558094 47.16026667493181  26.937005556546726 47.86778279196628  C 26.150928765535355 48.57529890900074  25.198062850878788 49.07093714356558  24.16803789138794 49.308074386312924  C 23.13801293189709 49.545211629060255  22.064685018016743 49.51605384484255  21.049010753631592 49.22334540044632  C 20.03333648924644 48.93063695605009  19.10870035508505 48.38399827981651  18.362077089456417 47.63484651624101  C 18.362077089456417 47.63484651624101  12.461538461538462 41.72558889164394  12.461538461538462 41.72558889164394  L 4.40515395311209 49.78763997024547  L 0 49.78763997024547  L 0 45.375978180014876  L 8.056384508426373 37.32016662534093  C 8.056384508426373 37.32016662534093  2.1496155628791223 31.404669476816267  2.1496155628791223 31.404669476816267  C 1.4030399270928824 30.656842719439624  0.8584820433304862 29.73126912348128  0.5670740329302275 28.714854450781058  C 0.2756660225299689 27.698439778080832  0.24696797476365018 26.624528111827427  0.48367408605722284 25.59395883957352  C 0.7203801973507956 24.563389567319614  1.214724946480531 23.609972291098437  1.9202918914648206 22.82322489461939  C 2.62585883644911 22.03647749814034  3.5195005238056196 21.44221414734689  4.517307840860808 21.09623059757005  C 4.517307840860808 21.09623059757005  11.383614778518677 18.725038928837094  11.383614778518677 18.725038928837094  C 12.158575014999279 18.45602624442103  12.872876929549072 18.036429302008433  13.485543306057272 17.490318373419292  C 14.09820968256547 16.944207444830152  14.597185319719408 16.282329283411855  14.953846748058615 15.542651128192412  C 14.953846748058615 15.542651128192412  19.950923956357517 5.265410240515744  19.950923956357517 5.265410240515744  C 20.602673032535957 3.9236802318373414  21.56526894408923 2.757433021324076  22.7584500679603 1.8639114182990328  C 23.951631191831368 0.9703898152739895  25.340820072935177 0.37548776500123976  26.81018576255212 0.12880687453508555  C 28.279551452169056 -0.11787401593106868  29.786511478515777 -0.009184571038928838  31.20541785313533 0.44581307339449544  C 32.62432422775489 0.9008107178279197  33.91405661289509 1.6889304487974213  34.96707685177143 2.744459397470865  Z M 6.230769230769231 65.40005950905034  L 6.230769230769231 55.58457723778825  L 12.17492305315458 49.63163699479296  L 12.461538461538462 49.91243639970245  C 12.461538461538462 49.91243639970245  12.461538461538462 65.40005950905034  12.461538461538462 65.40005950905034  C 12.461538461538467 67.88247638234566  13.446219996764112 70.26322111331515  15.19896384385916 72.01855492189438  C 16.95170769095421 73.7738887304736  19.32893819304613 74.76002380362011  21.807692307692307 74.76002380362014  C 21.807692307692307 74.76002380362014  43.61538461538461 74.76002380362014  43.61538461538461 74.76002380362014  C 43.61538461538461 74.76002380362014  43.61538461538461 59.16008331267047  43.61538461538461 59.16008331267047  C 43.61538461538461 55.02272179518968  45.25651995035318 51.05481601785272  48.17775975740873 48.12925960823209  C 51.098999564464286 45.20370319861146  55.06105077266694 43.56014282172081  59.1923076923077 43.5601428217208  C 59.1923076923077 43.5601428217208  74.76923076923076 43.5601428217208  74.76923076923076 43.5601428217208  C 74.76923076923076 43.5601428217208  74.76923076923076 21.720227622117527  74.76923076923076 21.720227622117527  C 74.76923076923076 19.237810748822216  73.78455071953627 16.857067505578975  72.03180687244121 15.101733696999753  C 70.27906302534616 13.34639988842053  67.90183103772311 12.360262583684603  65.42307692307693 12.360262583684603  C 65.42307692307693 12.360262583684603  52.72476856525128 12.360262583684603  52.72476856525128 12.360262583684603  C 52.47068663715171 12.060512173010167  52.204622182708526 11.771158016674931  51.927228487454926 11.49290627324572  C 51.927228487454926 11.49290627324572  46.562535799466644 6.120286759236301  46.562535799466644 6.120286759236301  C 46.562535799466644 6.120286759236301  65.42307692307693 6.120286759236301  65.42307692307693 6.120286759236301  C 69.5543338427177 6.120286759236301  73.51638505092035 7.763846764195388  76.4376248579759 10.689403173816018  C 79.35886466503145 13.614959583436649  81 17.582866104636746  81 21.720227622117527  C 81 21.720227622117527  81 44.63341829903298  81 44.63341829903298  C 80.99911807368782 48.76891272005951  79.35861138197092 52.73483591619142  76.43907473637508 55.65945747582445  C 76.43907473637508 55.65945747582445  55.696846961975105 76.4323352343169  55.696846961975105 76.4323352343169  C 52.77654062555387 79.3561859657823  48.8164690732956 80.99911677049958  44.68707649524396 81  C 44.68707649524396 81  21.807692307692307 81  21.807692307692307 81  C 17.676435388051548 81.00000000000001  13.714384179848892 79.35643962310934  10.793144372793344 76.43088321348871  C 7.871904565737798 73.50532680386807  6.230769230769231 69.53742102653112  6.230769230769231 65.40005950905034  Z M 49.84615384615385 59.16008331267047  C 49.84615384615385 59.16008331267047  49.84615384615385 73.20002975452518  49.84615384615385 73.20002975452518  C 50.36330767262441 72.85683106558395  50.84307912909068 72.46371516241013  51.29169449439416 72.01443689561121  C 51.29169449439416 72.01443689561121  72.03392226879414 51.24779568559385  72.03392226879414 51.24779568559385  C 72.47630689866268 50.80475736114555  72.86884866253688 50.318037022687825  73.21777175023006 49.800119018100666  C 73.21777175023006 49.800119018100666  59.1923076923077 49.800119018100666  59.1923076923077 49.800119018100666  C 56.71355357766152 49.800119018100666  54.336321590038445 50.786254091247216  52.5835777429434 52.54158789982644  C 50.83083389584835 54.29692170840566  49.84615384615387 56.67766643937516  49.84615384615385 59.16008331267047  Z " fill-rule="nonzero" fill="#000000" stroke="none" transform="matrix(1 0 0 1 598 3079 )" />
  </g>
</svg>