<?xml version="1.0" encoding="utf-8"?>
<svg version="1.1" xmlns:xlink="http://www.w3.org/1999/xlink" width="79px" height="88px" xmlns="http://www.w3.org/2000/svg">
  <g transform="matrix(1 0 0 1 -275 -3072 )">
    <path d="M 37.11980508527782 0  L 38 0  L 38 13.964353637695313  L 41 13.964353637695313  L 41 0  L 37.119360316252894 0  Z M 25.71542411322576 15.632466532389325  L 17.67945193264396 4.196499888102213  L 13.778868017621065 6.917386881510416  L 21.816976437307417 18.35342681884766  L 25.71542411322576 15.632466532389325  Z M 61.32002692385208 4.196499888102213  L 53.28427263516633 15.632540384928387  L 57.18331109014303 18.353499552408856  L 65.22127125348774 6.917386881510416  L 61.32068733846484 4.196499888102213  Z M 39.49922277736048 17.785093485514324  C 27.85260329776242 17.785093485514324  18.41132610207861 24.831179046630858  18.41132610207861 33.52425903320312  C 18.41132610207861 33.52425903320312  30.392489386051547 69  30.392489386051547 69  L 48.608016033294945 69  C 48.608016033294945 69  60.588148261801024 33.52425903320312  60.588148261801024 33.52425903320312  C 60.588148261801024 24.831325632731122  51.147461845175556 17.785093485514324  39.50032796099816 17.785093485514324  C 39.50032796099816 17.785093485514324  39.49922277736048 17.785093485514324  39.49922277736048 17.785093485514324  Z M 1.6266413439963403 21.97602030436198  L 0 26.435713297526043  L 13.164543156641951 31.210740966796877  L 14.797220611578165 26.753174031575526  L 1.6263470776212654 21.97602030436198  Z M 77.37283723171117 21.97602030436198  L 64.20188760406377 26.753541056315104  L 65.82904587973619 31.211620483398438  L 78.99999999999999 26.435787150065106  L 77.37283723171117 21.97602030436198  Z M 14.161255940490005 42.363275553385414  L 0.6249237854638041 45.98051472981771  L 1.8531304231282621 50.55878580729167  L 15.389462016577411 46.94675211588542  L 14.161477201848363 42.363275553385414  Z M 64.83822179285194 42.363275553385414  L 63.610897392735644 46.94668050130208  L 77.14723600589795 50.558127848307294  L 78.37455591339781 45.97978068033854  L 64.83822179285194 42.36312784830729  Z M 30.126989233871278 72  L 30.12691510570046 72.30901204427083  L 30.12691510570046 78  L 48.873664441816864 78  L 48.873664441816864 72  L 30.126989233871278 72  Z M 30.126989233871278 81  L 30.12691510570046 81.716357421875  L 30.12691510570046 88  L 48.873664441816864 88  L 48.873664441816864 81  L 30.126989233871278 81  Z " fill-rule="nonzero" fill="#000000" stroke="none" transform="matrix(1 0 0 1 275 3072 )" />
  </g>
</svg>