<?xml version="1.0" encoding="utf-8"?>
<svg version="1.1" xmlns:xlink="http://www.w3.org/1999/xlink" width="40px" height="40px" xmlns="http://www.w3.org/2000/svg">
  <g transform="matrix(1 0 0 1 -581 -1930 )">
    <path d="M 8.278892487537332 2.843333350287543  C 8.278892487537332 2.843333350287543  9.945558977597663 5.729999542236328  9.945558977597663 5.729999542236328  C 9.945558977597663 5.729999542236328  8.021114347127877 6.84111065334744  8.021114347127877 6.84111065334744  C 8.021114347127877 6.84111065334744  9.226669817323703 8.929999669392904  9.226669817323703 8.929999669392904  C 8.778902752780622 9.454160862498814  8.504603812604078 10.104221238030327  8.441526790033256 10.790706210666233  C 8.378449767462437 11.477191183302137  8.529696289200645 12.166351675987244  8.874448259729993 12.763332790798609  C 8.874448259729993 12.763332790798609  9.121113976254572 13.19111082288954  9.121113976254572 13.19111082288954  C 7.342681504071394 14.352112611134846  5.881993346003071 15.938456190956964  4.871363653462341 17.80644310845269  C 3.8607339609216096 19.674430025948418  3.3320961001829548 21.765037112765842  3.333336953763225 23.88888888888889  C 3.333336953763225 25.275555584165783  3.55555897362402 26.613333225250244  3.9644478199802164 27.86666658189562  C 2.7264368294147037 28.85451210869683  1.7270781753245275 30.108772383795845  1.0407063255621247 31.53614891899956  C 0.3543344757997221 32.963525454203285  -0.0013860037134458424 34.52728403939141  0 36.111111111111114  C 0 37.18888892067803  0.16222650742779757 38.233331905470955  0.4644487140497934 39.21555413140191  C 0.4644487140497934 39.21555413140191  0.7055597749752707 40  0.7055597749752707 40  C 0.7055597749752707 40  36.66666701987934 40  36.66666701987934 40  C 36.96135198817232 40  37.24396825894056 39.882937686310875  37.45234198545435 39.67456393771701  C 37.66071571196814 39.466190189123154  37.77777801325289 39.183573888407814  37.77777801325289 38.888888888888886  C 37.77777801325289 38.594203889369965  37.66071571196814 38.311587588654625  37.45234198545435 38.10321384006076  C 37.24396825894056 37.894840091466904  36.96135198817232 37.77777777777778  36.66666701987934 37.77777777777778  C 36.66666701987934 37.77777777777778  20.980001981523092 37.77777777777778  20.980001981523092 37.77777777777778  C 21.296245881319482 35.77675435278151  21.03410292634933 33.727028634813095  20.224446166944908 31.869998508029514  C 20.224446166944908 31.869998508029514  35.38110993903373 23.118888007269966  35.38110993903373 23.118888007269966  C 35.38110993903373 23.118888007269966  34.26999894566017 21.194445292154946  34.26999894566017 21.194445292154946  C 34.26999894566017 21.194445292154946  19.121112916616553 29.94110955132378  19.121112916616553 29.94110955132378  C 18.143890696749082 28.582783142725624  16.857366894895037 27.476588884989418  15.367917445721366 26.713992224799263  C 13.878467996547698 25.9513955646091  12.228882209048566 25.554306002644196  10.555558675600826 25.555555555555554  C 8.94686352445141 25.55317617823473  7.359077150654564 25.919997957017685  5.914448005416869 26.627777947319874  C 5.6755508097753715 25.73443955845303  5.55489160294241 24.813618527518383  5.555559205419836 23.88888888888889  C 5.554318402286201 22.15506911277771  5.980637565651198 20.447696182462902  6.796764077423512 18.917967478434246  C 7.612890589195826 17.388238774405586  8.793640264549227 16.083360579278732  10.234448090187911 15.118889278835718  C 10.234448090187911 15.118889278835718  13.318891173586191 20.461112128363716  13.318891173586191 20.461112128363716  C 13.760932484104105 21.22668882211049  14.488985327722194 21.78531433145205  15.342895153586582 22.014107174343533  C 16.19680497945097 22.242900017235012  17.106627466241257 22.123119301266144  17.872223549713183 21.681111653645836  C 17.872223549713183 21.681111653645836  18.834446924586093 21.12555609809028  18.834446924586093 21.12555609809028  C 18.834446924586093 21.12555609809028  19.945557917959643 23.050000932481556  19.945557917959643 23.050000932481556  C 19.945557917959643 23.050000932481556  21.87000254842943 21.938889821370445  21.87000254842943 21.938889821370445  C 21.87000254842943 21.938889821370445  20.758891555055875 20.014444986979164  20.758891555055875 20.014444986979164  C 20.758891555055875 20.014444986979164  21.721112810652752 19.45888943142361  21.721112810652752 19.45888943142361  C 22.48668942327612 19.016848074065315  23.04531699269962 18.288795153299965  23.274109811347344 17.43488523695204  C 23.50290262999507 16.58097532060411  23.383119807442583 15.671152737405565  22.94111220665908 14.90555657280816  C 22.94111220665908 14.90555657280816  18.49666823316487 7.2077782948811855  18.49666823316487 7.2077782948811855  C 18.151988086224865 6.6108785072962455  17.630801650598137 6.135461760891808  17.0048208231586 5.846945444742838  C 16.378839995719062 5.558429128593869  15.678829611266496 5.470992012156381  15.00111314973692 5.59666633605957  C 15.00111314973692 5.59666633605957  13.794448238537232 3.5077773200141054  13.794448238537232 3.5077773200141054  C 13.794448238537232 3.5077773200141054  11.870003608067448 4.618888431125217  11.870003608067448 4.618888431125217  C 11.870003608067448 4.618888431125217  10.203336058369102 1.7322222391764321  10.203336058369102 1.7322222391764321  C 10.203336058369102 1.7322222391764321  8.278892487537332 2.843333350287543  8.278892487537332 2.843333350287543  Z M 32.222223046385125 3.4444448682996964  C 32.222223046385125 3.4444448682996964  32.222223046385125 2.2222222222222223  32.222223046385125 2.2222222222222223  C 32.5169080146781 2.2222222222222223  32.799524285446346 2.105158848894967  33.00789801196014 1.896785100301107  C 33.21627173847392 1.6884113517072468  33.33333403975868 1.4057961106300354  33.33333403975868 1.1111111111111112  C 33.33333403975868 0.8164261115921868  33.21627173847392 0.5338108705149757  33.00789801196014 0.32543712192111546  C 32.799524285446346 0.11706337332725528  32.5169080146781 0  32.222223046385125 0  C 32.222223046385125 0  30.000001059638013 0  30.000001059638013 0  C 29.705316091345036 0  29.422699820576792 0.11706337332725528  29.214326094063008 0.32543712192111546  C 29.00595236754922 0.5338108705149757  28.888890066264466 0.8164261115921868  28.888890066264462 1.1111111111111112  C 28.888890066264466 1.4057961106300354  29.00595236754922 1.6884113517072468  29.214326094063008 1.896785100301107  C 29.422699820576792 2.105158848894967  29.705316091345036 2.2222222222222223  30.000001059638013 2.2222222222222223  C 30.000001059638013 2.2222222222222223  30.000001059638013 3.4444448682996964  30.000001059638013 3.4444448682996964  C 29.29111223315003 3.58888930744595  28.630001226531007 3.866666754086812  28.047779078189098 4.253333409627278  C 28.047779078189098 4.253333409627278  27.126667539101966 3.333333333333333  27.126667539101966 3.333333333333333  C 27.329065370791184 3.1237753729025517  27.4410590612594 2.8431057929992676  27.438527484625975 2.551776038275824  C 27.43599590799256 2.2604462835523815  27.31914283761524 1.9817659589979384  27.113133842348116 1.775756941901313  C 26.90712484708099 1.5697479248046875  26.628444022237563 1.4528937824070454  26.33711429838453 1.450362205505371  C 26.045784574531496 1.4478306286036968  25.765115024369024 1.5598243309391868  25.5555570861438 1.7622221840752494  C 25.5555570861438 1.7622221840752494  24.780001663631687 2.5377782185872393  24.780001663631687 2.5377782185872393  C 24.780001663631687 2.5377782185872393  24.76889029938483 2.547778023613824  24.76889029938483 2.547778023613824  C 24.76889029938483 2.547778023613824  24.760002055697754 2.558889389038086  24.760002055697754 2.558889389038086  C 24.760002055697754 2.558889389038086  23.984446633185637 3.333333333333333  23.984446633185637 3.333333333333333  C 23.78204880149642 3.5428912937641144  23.67005511102821 3.8235608736673985  23.672586687661628 4.114890628390842  C 23.675118264295048 4.4062203831142845  23.791971334672365 4.684900177849664  23.997980329939487 4.890909194946289  C 24.203989325206614 5.096918212042914  24.482670150050044 5.213773414078685  24.773999873903072 5.216304990980359  C 25.06532959775611 5.218836567882033  25.345999147918583 5.106841805908414  25.5555570861438 4.904443952772352  C 25.5555570861438 4.904443952772352  26.475556005313024 5.825555589463976  26.475556005313024 5.825555589463976  C 26.08282074448048 6.418185432751972  25.808168862060032 7.081050541665819  25.666668609336366 7.777777777777778  C 25.666668609336366 7.777777777777778  24.44444609277025 7.777777777777778  24.44444609277025 7.777777777777778  C 24.44444609277025 7.483092778258853  24.32738379148549 7.2004775371816425  24.119010064971707 6.992103788587781  C 23.91063633845792 6.783730039993921  23.628020067689675 6.666666666666666  23.33333509939669 6.666666666666666  C 23.03865013110371 6.666666666666666  22.75603386033547 6.783730039993921  22.547660133821683 6.992103788587781  C 22.3392864073079 7.2004775371816425  22.222224106023138 7.483092778258853  22.222224106023138 7.777777777777778  C 22.222224106023138 7.777777777777778  22.222224106023138 10  22.222224106023138 10  C 22.222224106023138 10.294684999518926  22.3392864073079 10.577300240596134  22.547660133821683 10.785673989189997  C 22.75603386033547 10.994047737783855  23.03865013110371 11.111111111111109  23.33333509939669 11.111111111111109  C 23.628020067689675 11.111111111111109  23.91063633845792 10.994047737783855  24.119010064971707 10.785673989189997  C 24.32738379148549 10.577300240596134  24.44444609277025 10.294684999518926  24.44444609277025 10  C 24.44444609277025 10  25.666668609336366 10  25.666668609336366 10  C 25.811113033176735 10.708888901604547  26.08888939074523 11.369999978277418  26.475556005313024 11.952222188313801  C 26.475556005313024 11.952222188313801  25.5555570861438 12.873333825005426  25.5555570861438 12.873333825005426  C 25.45306061043362 12.767211380932066  25.330454432055213 12.682563803262179  25.19489445210621 12.624331580268011  C 25.059334472157214 12.566099357273844  24.913536402142164 12.535448990012004  24.76600384542636 12.534166971842449  C 24.618471288710563 12.532884953672895  24.472160031036797 12.560997721221712  24.335608552762288 12.61686537000868  C 24.199057074487786 12.672733018795647  24.074998670485424 12.755235425300068  23.970673458239933 12.859560648600262  C 23.866348245994438 12.963885871900453  23.783845848232282 13.087944289048512  23.727978205365265 13.224495781792536  C 23.672110562498247 13.361047274536556  23.643997797928364 13.507358547714022  23.64527981596207 13.654891120062933  C 23.646561833995776 13.802423692411844  23.67721219800979 13.948221777876217  23.73544441483345 14.08378177218967  C 23.79367663165711 14.21934176650312  23.87832420035742 14.341947957873344  23.984446633185637 14.444444444444445  C 23.984446633185637 14.444444444444445  25.5555570861438 16.015555063883465  25.5555570861438 16.015555063883465  C 25.765115024369024 16.217952917019527  26.045784574531496 16.329946619355017  26.33711429838453 16.327415042453342  C 26.628444022237563 16.324883465551668  26.90712484708099 16.208030382792153  27.113133842348116 16.00202136569553  C 27.31914283761524 15.796012348598902  27.43599590799256 15.517331494225397  27.438527484625975 15.226001739501953  C 27.4410590612594 14.93467198477851  27.329065370791184 14.654002404875225  27.126667539101966 14.444444444444445  C 27.126667539101966 14.444444444444445  28.047779078189098 13.52444542778863  28.047779078189098 13.52444542778863  C 28.640408858679784 13.917180730236902  29.303273897353925 14.19183264176051  30.000001059638013 14.333332909478083  C 30.000001059638013 14.333332909478083  30.000001059638013 15.555555555555555  30.000001059638013 15.555555555555555  C 29.705316091345036 15.555555555555555  29.422699820576792 15.67261786924468  29.214326094063008 15.880991617838543  C 29.00595236754922 16.089365366432403  28.888890066264466 16.371981667147743  28.888890066264462 16.666666666666668  C 28.888890066264466 16.961351666185593  29.00595236754922 17.243967966900932  29.214326094063008 17.452341715494793  C 29.422699820576792 17.660715464088653  29.705316091345036 17.77777777777778  30.000001059638013 17.77777777777778  C 30.000001059638013 17.77777777777778  32.222223046385125 17.77777777777778  32.222223046385125 17.77777777777778  C 32.5169080146781 17.77777777777778  32.799524285446346 17.660715464088653  33.00789801196014 17.452341715494793  C 33.21627173847392 17.243967966900932  33.33333403975868 16.961351666185593  33.33333403975868 16.666666666666668  C 33.33333403975868 16.371981667147743  33.21627173847392 16.089365366432403  33.00789801196014 15.880991617838543  C 32.799524285446346 15.67261786924468  32.5169080146781 15.555555555555555  32.222223046385125 15.555555555555555  C 32.222223046385125 15.555555555555555  32.222223046385125 14.333332909478083  32.222223046385125 14.333332909478083  C 32.918950208669216 14.19183264176051  33.58181524734336 13.917180730236902  34.17444502783405 13.52444542778863  C 34.17444502783405 13.52444542778863  35.09555444764514 14.444444444444445  35.09555444764514 14.444444444444445  C 34.89315661595592 14.654002404875225  34.781162925487706 14.93467198477851  34.78369450212113 15.226001739501953  C 34.78622607875455 15.517331494225397  34.903083387683935 15.796012348598902  35.10909238295106 16.00202136569553  C 35.31510137821818 16.208030382792153  35.593782203061615 16.324883465551668  35.88511192691465 16.327415042453342  C 36.17644165076768 16.329946619355017  36.45710908165412 16.217952917019527  36.66666701987934 16.015555063883465  C 36.66666701987934 16.015555063883465  38.23777959211354 14.444444444444445  38.23777959211354 14.444444444444445  C 38.44017742380275 14.234886484013662  38.55217111427096 13.954216904110377  38.549639537637546 13.662887149386936  C 38.54710796100412 13.37155739466349  38.43025065207475 13.092876540289984  38.22424165680762 12.88686752319336  C 38.018232661540495 12.680858506096735  37.73955183669707 12.564005423337221  37.44822211284403 12.561473846435547  C 37.156892388991 12.558942269533873  36.87622495810456 12.670935971869364  36.66666701987934 12.873333825005426  C 36.66666701987934 12.873333825005426  35.74666810071012 11.952222188313801  35.74666810071012 11.952222188313801  C 36.13940336154266 11.359592345025803  36.41405736323914 10.696727236111958  36.55555761596281 10  C 36.55555761596281 10  37.77777801325289 10  37.77777801325289 10  C 37.77777801325289 10.294684999518926  37.894840314537646 10.577300240596134  38.10321404105144 10.785673989189997  C 38.31158776756522 10.994047737783855  38.594204038333466 11.111111111111109  38.88888900662644 11.111111111111109  C 39.18357397491943 11.111111111111109  39.46619024568766 10.994047737783855  39.674563972201454 10.785673989189997  C 39.88293769871524 10.577300240596134  40 10.294684999518926  40 10  C 40 10  40 7.777777777777778  40 7.777777777777778  C 40 7.483092778258853  39.88293769871524 7.2004775371816425  39.674563972201454 6.992103788587781  C 39.46619024568766 6.783730039993921  39.18357397491943 6.666666666666666  38.88888900662644 6.666666666666666  C 38.594204038333466 6.666666666666666  38.31158776756522 6.783730039993921  38.10321404105144 6.992103788587781  C 37.894840314537646 7.2004775371816425  37.77777801325289 7.483092778258853  37.77777801325289 7.777777777777778  C 37.77777801325289 7.777777777777778  36.55555761596281 7.777777777777778  36.55555761596281 7.777777777777778  C 36.41405736323914 7.081050541665819  36.13940336154266 6.418185432751972  35.74666810071012 5.825555589463976  C 35.74666810071012 5.825555589463976  36.66666701987934 4.904443952772352  36.66666701987934 4.904443952772352  C 36.76916349558952 5.010566396845711  36.89176967396793 5.095213974515596  37.02732965391692 5.153446197509766  C 37.16288963386592 5.211678420503935  37.30868770388098 5.242329847403906  37.45622026059677 5.243611865573459  C 37.603752817312575 5.244893883743012  37.75006407498635 5.216781116194196  37.88661555326085 5.160913467407227  C 38.02316703153536 5.105045818620257  38.14722543553771 5.022542352477709  38.25155064778321 4.918217129177517  C 38.3558758600287 4.813891905877325  38.43837825779086 4.689833488729265  38.49424590065787 4.553281995985243  C 38.550113543524894 4.416730503241221  38.57822630809478 4.270420289701885  38.57694429006107 4.122887717352973  C 38.575662272027365 3.9753551450040603  38.54500978873732 3.8295549402634306  38.486777571913656 3.6939949459499783  C 38.428545355089994 3.5584349516365266  38.343902024941755 3.435829819904433  38.23777959211354 3.333333333333333  C 38.23777959211354 3.333333333333333  36.66666701987934 1.7622221840752494  36.66666701987934 1.7622221840752494  C 36.56417054416916 1.6560997400018904  36.441564365790754 1.5714526921510696  36.30600438584175 1.513220469156901  C 36.17044440589275 1.4549882461627321  36.024646335877705 1.4243368192627612  35.8771137791619 1.4230548010932076  C 35.7295812224461 1.4217727829236537  35.583269964772335 1.449886080291536  35.44671848649783 1.5057537290785048  C 35.310167008223324 1.5616213778654737  35.18610860422096 1.6441248440080216  35.08178339197546 1.748450067308214  C 34.97745817972997 1.852775290608406  34.89495578196782 1.9768331779374015  34.8390881391008 2.1133846706814237  C 34.78322049623379 2.249936163425445  34.7551077316639 2.396246376964781  34.756389749697604 2.5437789493136935  C 34.75767176773131 2.6913115216626062  34.78832425102136 2.8371117264032364  34.84655646784502 2.9726717207166886  C 34.904788684668674 3.1082317150301404  34.98943201481691 3.2308368467622333  35.09555444764514 3.333333333333333  C 35.09555444764514 3.333333333333333  34.17444502783405 4.253333409627278  34.17444502783405 4.253333409627278  C 33.58181524734336 3.8605981071790056  32.918950208669216 3.5859451360172696  32.222223046385125 3.4444448682996964  Z M 14.063335623917514 32.86111195882162  C 14.063335623917514 32.86111195882162  19.121112916616553 29.94110955132378  19.121112916616553 29.94110955132378  C 19.555802657254254 30.543416672282746  19.925633577438614 31.189969049559704  20.224446166944908 31.869998508029514  C 20.224446166944908 31.869998508029514  15.174446617291066 34.78555467393663  15.174446617291066 34.78555467393663  C 15.174446617291066 34.78555467393663  14.063335623917514 32.86111195882162  14.063335623917514 32.86111195882162  Z " fill-rule="nonzero" fill="#000000" stroke="none" transform="matrix(1 0 0 1 581 1930 )" />
  </g>
</svg>