<?xml version="1.0" encoding="utf-8"?>
<svg version="1.1" xmlns:xlink="http://www.w3.org/1999/xlink" width="50px" height="56px" xmlns="http://www.w3.org/2000/svg">
  <g transform="matrix(1 0 0 1 -204 -2188 )">
    <path d="M 23.49354752232773 0  L 23.49354752232773 8.886406860351563  L 26.506726868484854 8.886406860351563  L 26.506726868484854 0  L 23.49326602294487 0  Z M 16.275584881788458 9.947933247884116  L 11.189526539648078 2.6704999287923177  L 8.720802542798141 4.401973470052083  L 13.808212935004693 11.679453430175784  L 16.275584881788458 9.947933247884116  Z M 38.81014362269119 2.6704999287923177  L 33.724223186814136 9.947980244954428  L 36.19196904439433 11.679499715169271  L 41.279285603473255 4.401973470052083  L 38.81056160662332 2.6704999287923177  Z M 24.999508086937013 11.317786763509115  C 17.628229935292673 11.317786763509115  11.652738039290261 15.801659393310546  11.652738039290261 21.333619384765626  C 11.652738039290261 21.333619384765626  19.235752775981993 44  19.235752775981993 44  L 30.764567109680346 44  C 30.764567109680346 44  38.3469292796209 21.333619384765626  38.3469292796209 21.333619384765626  C 38.3469292796209 15.80175267537435  32.37181129441491 11.317786763509115  25.000207570252 11.317786763509115  Z M 1.0295198379723673 13.984740193684898  L 0 16.82272664388021  L 8.331989339646805 19.861380615234378  L 9.365329500998838 17.024747111002608  L 1.0293335934311805 13.984740193684898  Z M 48.97015014665264 13.984740193684898  L 40.63410607852138 17.02498067220052  L 41.66395308844062 19.86194030761719  L 49.999999999999986 16.822773640950523  L 48.97015014665264 13.984740193684898  Z M 8.962820215500003 26.958448079427082  L 0.3955213832049393 29.260327555338545  L 1.1728673564102925 32.173772786458336  L 9.740165833276842 29.87520589192708  L 8.962960254334407 26.958448079427082  Z M 41.03684923598224 26.958448079427082  L 40.26006164097193 29.87516031901042  L 48.8273645606949 32.17335408528646  L 49.604149312277094 29.25986043294271  L 41.03684923598224 26.95835408528646  Z M 19.06771470498182 46  L 19.06766778841801 46.014825846354164  L 19.06766778841801 50  L 30.93269901380814 50  L 30.93269901380814 46  L 19.06771470498182 46  Z M 19.06771470498182 52  L 19.06766778841801 52.001318359375  L 19.06766778841801 56  L 30.93269901380814 56  L 30.93269901380814 52  L 19.06771470498182 52  Z " fill-rule="nonzero" fill="#000000" stroke="none" transform="matrix(1 0 0 1 204 2188 )" />
  </g>
</svg>