<?xml version="1.0" encoding="utf-8"?>
<svg version="1.1" xmlns:xlink="http://www.w3.org/1999/xlink" width="40px" height="40px" xmlns="http://www.w3.org/2000/svg">
  <g transform="matrix(1 0 0 1 -396 -1930 )">
    <path d="M 17.267692272479717 1.3552885913436372  C 17.267692272479717 1.3552885913436372  17.264615572415867 1.3583702050674529  17.264615572415867 1.3583702050674529  C 17.264615572415867 1.3583702050674529  23.193846482496994 7.2963627848031525  23.193846482496994 7.2963627848031525  C 23.714326253304115 7.817141177875123  24.10294587795551 8.454987189023887  24.327304546649643 9.156717084056535  C 24.551663215343773 9.858446979089182  24.605260021411457 10.60372441248588  24.483622037447418 11.330409308390959  C 24.361984053483376 12.057094204296039  24.068638315567604 12.744126374080501  23.62804412841797 13.334222295690186  C 23.187449941268333 13.924318217299872  22.612373783038215 14.400376638105996  21.950768690842853 14.722703621052244  C 21.950768690842853 14.722703621052244  16.883076887864338 17.194042482849824  16.883076887864338 17.194042482849824  C 16.1505368581185 17.551519271565144  15.589506259331339 18.185412384861927  15.323076981764574 18.95664324875334  C 15.323076981764574 18.95664324875334  14.153845860407904 22.352422146917558  14.153845860407904 22.352422146917558  C 13.983473273424003 22.84648212432616  13.690411035831158 23.28902058021324  13.302224966195915 23.638411255291988  C 12.914038896560669 23.987801930370736  12.443487827594463 24.232561552378066  11.934833526611328 24.34966636361132  C 11.426179225628193 24.46677117484457  10.896140749637897 24.45237226905805  10.394573211669922 24.30782488910929  C 9.893005673701946 24.163277509160537  9.436395237079036 23.893332483860004  9.06769238985502 23.523380995674575  C 9.06769238985502 23.523380995674575  6.153846153846154 20.605229082293302  6.153846153846154 20.605229082293302  L 2.175384668203501 24.586488874195297  L 0 24.586488874195297  L 0 22.407890459266607  L 3.978461485642653 18.42971191374861  C 3.978461485642653 18.42971191374861  1.061538549569937 15.508478753983342  1.061538549569937 15.508478753983342  C 0.6928592232557444 15.139181589846729  0.42394174979283267 14.68210820912656  0.2800365594717173 14.180175037422744  C 0.13613136915060192 13.67824186571893  0.12195949371044454 13.147915116951816  0.23885140052208537 12.638992019542478  C 0.3557433073337262 12.130068922133145  0.5998641711014968 11.659245575851081  0.9482922920813929 11.27072834302192  C 1.2967204130612888 10.882211110192761  1.7380249500274663 10.588747727084884  2.230769304128794 10.417891653121012  C 2.230769304128794 10.417891653121012  5.621538162231445 9.246932804363997  5.621538162231445 9.246932804363997  C 6.004234575308286 9.11408703428199  6.356976261505714 8.906878667658484  6.659527558546801 8.637194258478663  C 6.962078855587887 8.367509849298841  7.2084865776392135 8.040656436252767  7.3846156780536365 7.675383273181438  C 7.3846156780536365 7.675383273181438  9.852308126596304 2.60020258790901  9.852308126596304 2.60020258790901  C 10.174159522239979 1.937619867573996  10.649515527945299 1.3616953191723833  11.238740774301384 0.9204500831106335  C 11.827966020657465 0.47920484704888366  12.513985221202557 0.18542605679073568  13.239597907433145 0.06360833310374595  C 13.96521059366373 -0.058209390583243786  14.709388384452236 -0.004535590636508068  15.4100828904372 0.22015460414542984  C 16.110777396422165 0.4448447989273677  16.74768227797288 0.8340397278011957  17.267692272479717 1.3552885913436372  Z M 3.076923076923077 32.29632568348165  L 3.076923076923077 27.44917394458679  L 6.012307680570163 24.509450367798994  L 6.153846153846154 24.648116740593803  C 6.153846153846154 24.648116740593803  6.153846153846154 32.29632568348165  6.153846153846154 32.29632568348165  C 6.153846153846157 33.52221055918304  6.640108640377339 34.697886969538345  7.505661157461313 35.56471847994784  C 8.371213674545288 36.43154999035733  9.545154663232656 36.91853027339265  10.769230769230768 36.91853027339266  C 10.769230769230768 36.91853027339266  21.538461538461537 36.91853027339266  21.538461538461537 36.91853027339266  C 21.538461538461537 36.91853027339266  21.538461538461537 29.214855956874306  21.538461538461537 29.214855956874306  C 21.538461538461537 27.171714466760335  22.34889874091515 25.21225482363097  23.79148629995493 23.767535609003502  C 25.23407385899471 22.322816394376026  27.190642356872562 21.511181640355957  29.230769230769234 21.51118164035595  C 29.230769230769234 21.51118164035595  36.92307692307692 21.51118164035595  36.92307692307692 21.51118164035595  C 36.92307692307692 21.51118164035595  36.92307692307692 10.72603833190989  36.92307692307692 10.72603833190989  C 36.92307692307692 9.500153456208501  36.436815170141365 8.324477780532826  35.57126265305739 7.457646270123335  C 34.70571013597342 6.590814759713842  33.53176841369043 6.103833374659064  32.307692307692314 6.103833374659064  C 32.307692307692314 6.103833374659064  26.03692274827224 6.103833374659064  26.03692274827224 6.103833374659064  C 25.911450191186027 5.955808480498847  25.78006033714001 5.812917539098732  25.643075796274037 5.675509270738628  C 25.643075796274037 5.675509270738628  22.993844839242787 3.02236383172163  22.993844839242787 3.02236383172163  C 22.993844839242787 3.02236383172163  32.307692307692314 3.02236383172163  32.307692307692314 3.02236383172163  C 34.34781918158899 3.02236383172163  36.30438767946684 3.8339984020717965  37.746975238506614 5.278717616699268  C 39.189562797546394 6.72343683132674  40 8.682896841795923  40 10.72603833190989  C 40 10.72603833190989  40 22.041194221744682  40 22.041194221744682  C 39.9995644808335 24.083413688918277  39.18943771949181 26.041894279600704  37.747691227839546 27.486151839913312  C 37.747691227839546 27.486151839913312  27.50461578369141 37.74436307867501  27.50461578369141 37.74436307867501  C 26.06248919780438 39.18823998310237  24.106898307800297 39.999563837283745  22.06769209641677 40  C 22.06769209641677 40  10.769230769230768 40  10.769230769230768 40  C 8.729103895334097 40.00000000000001  6.7725353974562434 39.188365245979924  5.329947838416467 37.743646031352455  C 3.8873602793766904 36.29892681672497  3.076923076923077 34.339467173595615  3.076923076923077 32.29632568348165  Z M 24.615384615384617 29.214855956874306  C 24.615384615384617 29.214855956874306  24.615384615384617 36.14816284174083  24.615384615384617 36.14816284174083  C 24.870769221049088 35.978682007695774  25.107693397081817 35.78455069748648  25.329231849083534 35.562684886721584  C 25.329231849083534 35.562684886721584  35.572307293231674 25.30755342498462  35.572307293231674 25.30755342498462  C 35.790768838845764 25.08876906723237  35.984616623475006 24.848413344537196  36.156924321101265 24.592651366963292  C 36.156924321101265 24.592651366963292  29.230769230769234 24.592651366963292  29.230769230769234 24.592651366963292  C 28.00669312477112 24.592651366963292  26.83275140248812 25.079631649998625  25.967198885404148 25.94646316040812  C 25.101646368320175 26.813294670817612  24.615384615384627 27.988971081172917  24.615384615384617 29.214855956874306  Z " fill-rule="nonzero" fill="#000000" stroke="none" transform="matrix(1 0 0 1 396 1930 )" />
  </g>
</svg>