<?xml version="1.0" encoding="utf-8"?>
<svg version="1.1" xmlns:xlink="http://www.w3.org/1999/xlink" width="66px" height="66px" xmlns="http://www.w3.org/2000/svg">
  <g transform="matrix(1 0 0 1 -935 -3094 )">
    <path d="M 13.660172604436598 4.691500027974446  C 13.660172604436598 4.691500027974446  16.410172313036142 9.454499244689941  16.410172313036142 9.454499244689941  C 16.410172313036142 9.454499244689941  13.234838672760999 11.287832578023275  13.234838672760999 11.287832578023275  C 13.234838672760999 11.287832578023275  15.224005198584111 14.734499454498291  15.224005198584111 14.734499454498291  C 14.485189542088026 15.599365423123041  14.032596290796727 16.67196504275004  13.928519203554874 17.80466524759928  C 13.824442116313021 18.937365452448528  14.073998877181065 20.074480265378952  14.642839628554489 21.059499104817707  C 14.642839628554489 21.059499104817707  15.049838060820042 21.765332857767742  15.049838060820042 21.765332857767742  C 12.1154244817178 23.680985808372498  9.705289020905068 26.29845271507899  8.037750028212862 29.38063112894694  C 6.370211035520656 32.46280954281489  5.497958565301875 35.91231123606364  5.500005973709322 39.416666666666664  C 5.500005973709322 41.70466671387354  5.866672306479633 43.9119998216629  6.5413389029673565 45.97999986012777  C 4.498620768534261 47.60994497934978  2.84967898928547 49.67947443326314  1.7171654371775058 52.03464571634928  C 0.5846518850695415 54.389816999435425  -0.00228690612718564 56.97001866499583  0 59.583333333333336  C 0 61.36166671911875  0.26767373725586596 63.08499764402707  0.7663403781821592 64.70566431681314  C 0.7663403781821592 64.70566431681314  1.1641736287091966 66  1.1641736287091966 66  C 1.1641736287091966 66  60.50000058280091 66  60.50000058280091 66  C 60.98623078048432 66  61.45254762725193 65.80684718241295  61.79636427599968 65.46303049723308  C 62.140180924747426 65.1192138120532  62.33333372186727 64.6528969158729  62.33333372186727 64.16666666666667  C 62.33333372186727 63.68043641746044  62.140180924747426 63.21411952128013  61.79636427599968 62.87030283610026  C 61.45254762725193 62.52648615092039  60.98623078048432 62.33333333333333  60.50000058280091 62.33333333333333  C 60.50000058280091 62.33333333333333  34.6170032695131 62.33333333333333  34.6170032695131 62.33333333333333  C 35.138805704177145 59.031644682089485  34.706269828476394 55.64959724744161  33.370336175459094 52.585497538248696  C 33.370336175459094 52.585497538248696  58.37883139940565 38.14616521199544  58.37883139940565 38.14616521199544  C 58.37883139940565 38.14616521199544  56.545498260339286 34.970834732055664  56.545498260339286 34.970834732055664  C 56.545498260339286 34.970834732055664  31.549836312417312 49.40283075968424  31.549836312417312 49.40283075968424  C 29.937419649635984 47.161592185497284  27.81465537657681 45.336371660232544  25.357063785440253 44.07808717091878  C 22.8994721943037 42.81980268160501  20.177655644930134 42.164604904362925  17.416671814741363 42.166666666666664  C 14.762324815344828 42.162740694087304  12.14247729858003 42.76799662907918  9.758839208937834 43.9358336130778  C 9.364658836129363 42.4618252714475  9.165571144854976 40.94247057040533  9.16667268894273 39.416666666666664  C 9.164625363772233 36.55586403608322  9.868051983324477 33.73869870106379  11.214660727748795 31.214646339416504  C 12.561269472173112 28.69059397776922  14.509506436506225 26.537544955809906  16.886839348810053 24.946167310078938  C 16.886839348810053 24.946167310078938  21.976170436417217 33.760835011800125  21.976170436417217 33.760835011800125  C 22.705538598771774 35.02403655648231  23.90682579074162 35.945768646895885  25.31577700341786 36.32327683766683  C 26.7247282160941 36.70078502843777  28.22593531929807 36.50314684708914  29.48916885702675 35.773834228515625  C 29.48916885702675 35.773834228515625  31.076837425567053 34.857167561848954  31.076837425567053 34.857167561848954  C 31.076837425567053 34.857167561848954  32.91017056463341 38.032501538594566  32.91017056463341 38.032501538594566  C 32.91017056463341 38.032501538594566  36.08550420490856 36.19916820526123  36.08550420490856 36.19916820526123  C 36.08550420490856 36.19916820526123  34.2521710658422 33.023834228515625  34.2521710658422 33.023834228515625  C 34.2521710658422 33.023834228515625  35.83983613757704 32.107167561848954  35.83983613757704 32.107167561848954  C 37.103037548405595 31.377799322207768  38.024773037954375 30.176512002944943  38.402281188723116 28.767560640970867  C 38.77978933949186 27.358609278996784  38.582147682280265 25.85740201671918  37.85283514098749 24.594168345133465  C 37.85283514098749 24.594168345133465  30.519502584722034 11.892834186553955  30.519502584722034 11.892834186553955  C 29.950780342271024 10.907949537038805  29.090822723486927 10.123511905471481  28.05795435821169 9.647459983825684  C 27.02508599293645 9.171408062179884  25.87006885858972 9.027136820058027  24.75183669706592 9.234499454498291  C 24.75183669706592 9.234499454498291  22.760839593586432 5.787832578023274  22.760839593586432 5.787832578023274  C 22.760839593586432 5.787832578023274  19.585505953311287 7.621165911356608  19.585505953311287 7.621165911356608  C 19.585505953311287 7.621165911356608  16.835504496309017 2.8581666946411133  16.835504496309017 2.8581666946411133  C 16.835504496309017 2.8581666946411133  13.660172604436598 4.691500027974446  13.660172604436598 4.691500027974446  Z M 53.166668026535454 5.683334032694499  C 53.166668026535454 5.683334032694499  53.166668026535454 3.6666666666666665  53.166668026535454 3.6666666666666665  C 53.65289822421887 3.6666666666666665  54.11921507098647 3.4735121006766954  54.463031719734225 3.129695415496826  C 54.806848368481965 2.7858787303169574  55.00000116560182 2.3195635825395584  55.00000116560182 1.8333333333333333  C 55.00000116560182 1.3471030841271083  54.806848368481965 0.8807879363497099  54.463031719734225 0.5369712511698405  C 54.11921507098647 0.19315456598997122  53.65289822421887 0  53.166668026535454 0  C 53.166668026535454 0  49.500001748402724 0  49.500001748402724 0  C 49.013771550719305 0  48.54745470395171 0.19315456598997122  48.20363805520396 0.5369712511698405  C 47.85982140645621 0.8807879363497099  47.66666860933637 1.3471030841271083  47.66666860933636 1.8333333333333333  C 47.66666860933637 2.3195635825395584  47.85982140645621 2.7858787303169574  48.20363805520396 3.129695415496826  C 48.54745470395171 3.4735121006766954  49.013771550719305 3.6666666666666665  49.500001748402724 3.6666666666666665  C 49.500001748402724 3.6666666666666665  49.500001748402724 5.683334032694499  49.500001748402724 5.683334032694499  C 48.33033518469755 5.921667357285817  47.23950202377616 6.38000014424324  46.27883547901202 7.01800012588501  C 46.27883547901202 7.01800012588501  44.759001439518244 5.5  44.759001439518244 5.5  C 45.09295786180545 5.15422936528921  45.27774745107801 4.6911245584487915  45.27357034963286 4.21043046315511  C 45.26939324818772 3.7297363678614293  45.076585682065144 3.269913832346598  44.73667083987439 2.9299989541371665  C 44.396755997683634 2.5900840759277344  43.93693263669198 2.397274740971625  43.45623859233448 2.3930976390838623  C 42.975544547976966 2.3889205371960998  42.51243979020889 2.5737101460496583  42.16666919213727 2.9076666037241616  C 42.16666919213727 2.9076666037241616  40.88700274499229 4.187334060668945  40.88700274499229 4.187334060668945  C 40.88700274499229 4.187334060668945  40.86866899398496 4.203833738962809  40.86866899398496 4.203833738962809  C 40.86866899398496 4.203833738962809  40.854003391901294 4.222167491912842  40.854003391901294 4.222167491912842  C 40.854003391901294 4.222167491912842  39.5743369447563 5.5  39.5743369447563 5.5  C 39.24038052246909 5.845770634710789  39.05559093319654 6.308875441551208  39.05976803464169 6.78956953684489  C 39.06394513608683 7.27026363213857  39.2567527022094 7.730085293451945  39.59666754440015 8.070000171661377  C 39.936582386590906 8.40991504987081  40.39640574758257 8.602726133229831  40.877099791940076 8.606903235117594  C 41.35779383629758 8.611080337005356  41.82089859406566 8.426288979748884  42.16666919213727 8.092332522074381  C 42.16666919213727 8.092332522074381  43.684667408766494 9.612166722615559  43.684667408766494 9.612166722615559  C 43.036654228392784 10.590005964040754  42.583478622399056 11.6837333937486  42.350003205405 12.833333333333334  C 42.350003205405 12.833333333333334  40.333336053070916 12.833333333333334  40.333336053070916 12.833333333333334  C 40.333336053070916 12.347103084127108  40.14018325595106 11.880787936349709  39.79636660720332 11.53697125116984  C 39.45254995845556 11.193154565989971  38.986233111687966 11  38.50000291400454 11  C 38.01377271632112 11  37.54745586955353 11.193154565989971  37.203639220805776 11.53697125116984  C 36.859822572058036 11.880787936349709  36.66666977493818 12.347103084127108  36.66666977493818 12.833333333333334  C 36.66666977493818 12.833333333333334  36.66666977493818 16.5  36.66666977493818 16.5  C 36.66666977493818 16.986230249206226  36.859822572058036 17.452545396983624  37.203639220805776 17.796362082163494  C 37.54745586955353 18.140178767343365  38.01377271632112 18.333333333333332  38.50000291400454 18.333333333333332  C 38.986233111687966 18.333333333333332  39.45254995845556 18.140178767343365  39.79636660720332 17.796362082163494  C 40.14018325595106 17.452545396983624  40.333336053070916 16.986230249206226  40.333336053070916 16.5  C 40.333336053070916 16.5  42.350003205405 16.5  42.350003205405 16.5  C 42.58833650474161 17.669666687647503  43.046667494729626 18.76049996415774  43.684667408766494 19.721166610717773  C 43.684667408766494 19.721166610717773  42.16666919213727 21.241000811258953  42.16666919213727 21.241000811258953  C 41.99755000721547 21.06589877853791  41.7952498128911 20.926230275382597  41.571575845975254 20.83014710744222  C 41.34790187905941 20.73406393950184  41.10733506353457 20.683490833519805  40.8639063449535 20.68137550354004  C 40.62047762637243 20.679260173560273  40.37906405121071 20.725646240015823  40.153754112057776 20.817827860514324  C 39.92844417290485 20.910009481012818  39.72374780630095 21.046138451745115  39.55161120609589 21.21827507019043  C 39.37947460589082 21.390411688635748  39.24334564958326 21.595108076930046  39.15116403885269 21.820418039957683  C 39.05898242812211 22.04572800298532  39.012596366581796 22.287141603728134  39.014711696337415 22.53057034810384  C 39.016827026093026 22.773999092479546  39.06740012671616 23.01456593349576  39.16348328447519 23.238239924112953  C 39.25956644223423 23.461913914730147  39.399234930589735 23.66421413049102  39.5743369447563 23.833333333333332  C 39.5743369447563 23.833333333333332  42.16666919213727 26.425665855407715  42.16666919213727 26.425665855407715  C 42.51243979020889 26.759622313082218  42.975544547976966 26.944411921935775  43.45623859233448 26.940234820048012  C 43.93693263669198 26.93605771816025  44.396755997683634 26.743250131607052  44.73667083987439 26.40333525339762  C 45.076585682065144 26.06342037518819  45.26939324818772 25.603596965471905  45.27357034963286 25.122902870178223  C 45.27774745107801 24.64220877488454  45.09295786180545 24.179103968044124  44.759001439518244 23.833333333333332  C 44.759001439518244 23.833333333333332  46.27883547901202 22.315334955851238  46.27883547901202 22.315334955851238  C 47.25667461682164 22.963348204890888  48.35040193063398 23.41652385890484  49.500001748402724 23.649999300638836  C 49.500001748402724 23.649999300638836  49.500001748402724 25.666666666666668  49.500001748402724 25.666666666666668  C 49.013771550719305 25.666666666666668  48.54745470395171 25.859819484253723  48.20363805520396 26.203636169433594  C 47.85982140645621 26.547452854613468  47.66666860933637 27.013769750793774  47.66666860933636 27.5  C 47.66666860933637 27.98623024920623  47.85982140645621 28.452547145386536  48.20363805520396 28.796363830566406  C 48.54745470395171 29.14018051574628  49.013771550719305 29.333333333333332  49.500001748402724 29.333333333333332  C 49.500001748402724 29.333333333333332  53.166668026535454 29.333333333333332  53.166668026535454 29.333333333333332  C 53.65289822421887 29.333333333333332  54.11921507098647 29.14018051574628  54.463031719734225 28.796363830566406  C 54.806848368481965 28.452547145386536  55.00000116560182 27.98623024920623  55.00000116560182 27.5  C 55.00000116560182 27.013769750793774  54.806848368481965 26.547452854613468  54.463031719734225 26.203636169433594  C 54.11921507098647 25.859819484253723  53.65289822421887 25.666666666666668  53.166668026535454 25.666666666666668  C 53.166668026535454 25.666666666666668  53.166668026535454 23.649999300638836  53.166668026535454 23.649999300638836  C 54.31626784430421 23.41652385890484  55.40999515811654 22.963348204890888  56.387834295926176 22.315334955851238  C 56.387834295926176 22.315334955851238  57.90766483861448 23.833333333333332  57.90766483861448 23.833333333333332  C 57.57370841632727 24.179103968044124  57.388918827054724 24.64220877488454  57.39309592849986 25.122902870178223  C 57.397273029945005 25.603596965471905  57.59008758967849 26.06342037518819  57.930002431869255 26.40333525339762  C 58.26991727406 26.743250131607052  58.72974063505166 26.93605771816025  59.21043467940917 26.940234820048012  C 59.691128723766674 26.944411921935775  60.15422998472929 26.759622313082218  60.50000058280091 26.425665855407715  C 60.50000058280091 26.425665855407715  63.092336326987336 23.833333333333332  63.092336326987336 23.833333333333332  C 63.426292749274545 23.487562698622543  63.61108233854709 23.024457891782124  63.60690523710195 22.54376379648844  C 63.602728135656804 22.06306970119476  63.409913575923326 21.603246291478474  63.06999873373257 21.263331413269043  C 62.73008389154181 20.923416535059612  62.27026053055016 20.730608948506415  61.78956648619265 20.726431846618652  C 61.30887244183514 20.72225474473089  60.845771180872525 20.90704435358445  60.50000058280091 21.241000811258953  C 60.50000058280091 21.241000811258953  58.98200236617169 19.721166610717773  58.98200236617169 19.721166610717773  C 59.6300155465454 18.743327369292572  60.083194649344584 17.649599939584732  60.31667006633863 16.5  C 60.31667006633863 16.5  62.33333372186727 16.5  62.33333372186727 16.5  C 62.33333372186727 16.986230249206226  62.52648651898712 17.452545396983624  62.87030316773487 17.796362082163494  C 63.214119816482615 18.140178767343365  63.68043666325022 18.333333333333332  64.16666686093363 18.333333333333332  C 64.65289705861706 18.333333333333332  65.11921390538464 18.140178767343365  65.46303055413239 17.796362082163494  C 65.80684720288015 17.452545396983624  66 16.986230249206226  66 16.5  C 66 16.5  66 12.833333333333334  66 12.833333333333334  C 66 12.347103084127108  65.80684720288015 11.880787936349709  65.46303055413239 11.53697125116984  C 65.11921390538464 11.193154565989971  64.65289705861706 11  64.16666686093363 11  C 63.68043666325022 11  63.214119816482615 11.193154565989971  62.87030316773487 11.53697125116984  C 62.52648651898712 11.880787936349709  62.33333372186727 12.347103084127108  62.33333372186727 12.833333333333334  C 62.33333372186727 12.833333333333334  60.31667006633863 12.833333333333334  60.31667006633863 12.833333333333334  C 60.083194649344584 11.6837333937486  59.6300155465454 10.590005964040754  58.98200236617169 9.612166722615559  C 58.98200236617169 9.612166722615559  60.50000058280091 8.092332522074381  60.50000058280091 8.092332522074381  C 60.669119767722705 8.267434554795422  60.87141996204708 8.407103057950735  61.095093928962925 8.503186225891113  C 61.31876789587877 8.599269393831491  61.55933471140361 8.649844248216445  61.80276342998468 8.651959578196207  C 62.04619214856575 8.654074908175971  62.287605723727474 8.607688841720423  62.5129156628804 8.515507221221924  C 62.73822560203334 8.423325600723425  62.94292196863723 8.28719488158822  63.115058568842294 8.115058263142904  C 63.28719516904736 7.942921644697587  63.42332412535492 7.738225256403287  63.51550573608549 7.512915293375651  C 63.60768734681607 7.287605330348015  63.65407340835638 7.04619347800811  63.651958078600764 6.802764733632405  C 63.64984274884515 6.5593359892567  63.59926615141657 6.31876565143466  63.50318299365753 6.095091660817464  C 63.4070998358985 5.871417670200269  63.2674383411539 5.669119202842315  63.092336326987336 5.5  C 63.092336326987336 5.5  60.50000058280091 2.9076666037241616  60.50000058280091 2.9076666037241616  C 60.33088139787911 2.732564571003119  60.128581203554745 2.592896942049265  59.90490723663889 2.4968137741088867  C 59.68123326972304 2.400730606168508  59.44066645419821 2.350155751783556  59.197237735617136 2.3480404218037925  C 58.953809017036065 2.3459250918240286  58.71239544187435 2.3923120324810347  58.48708550272141 2.4844936529795327  C 58.261775563568484 2.5766752734780316  58.05707919696459 2.712805992613236  57.884942596759515 2.884942611058553  C 57.71280599655446 3.05707922950387  57.576677040246906 3.2617747435967126  57.48449542951632 3.4870847066243487  C 57.392313818785745 3.7123946696519847  57.345927757245434 3.953806521991888  57.348043087001045 4.197235266367595  C 57.35015841675666 4.4406640107432995  57.400735014185244 4.68123434856534  57.49681817194428 4.904908339182536  C 57.59290132970332 5.128582329799731  57.73256282444791 5.330880797157685  57.90766483861448 5.5  C 57.90766483861448 5.5  56.387834295926176 7.01800012588501  56.387834295926176 7.01800012588501  C 55.40999515811654 6.36998687684536  54.31626784430421 5.9168094744284945  53.166668026535454 5.683334032694499  Z M 23.2045037794639 54.220834732055664  C 23.2045037794639 54.220834732055664  31.549836312417312 49.40283075968424  31.549836312417312 49.40283075968424  C 32.267074384469524 50.396637509266526  32.87729540277371 51.463448931773506  33.370336175459094 52.585497538248696  C 33.370336175459094 52.585497538248696  25.03783691853026 57.396165211995445  25.03783691853026 57.396165211995445  C 25.03783691853026 57.396165211995445  23.2045037794639 54.220834732055664  23.2045037794639 54.220834732055664  Z " fill-rule="nonzero" fill="#000000" stroke="none" transform="matrix(1 0 0 1 935 3094 )" />
  </g>
</svg>