<?xml version="1.0" encoding="utf-8"?>
<svg version="1.1" xmlns:xlink="http://www.w3.org/1999/xlink" width="40px" height="38px" xmlns="http://www.w3.org/2000/svg">
  <g transform="matrix(1 0 0 1 -955 -1932 )">
    <path d="M 3.0833331743876142 21.488174770189367  C 3.0833331743876142 21.488174770189367  3.333333333333333 21.47826086956522  3.333333333333333 21.47826086956522  C 3.333333333333333 21.47826086956522  21.666666666666664 21.479912135912024  21.666666666666664 21.479912135912024  C 22.50733951727549 21.48006508716081  23.3169095714887 21.79510183438011  23.933191299438477 22.36190580285114  C 24.549473027388252 22.928709771322172  24.926948683957256 23.705418959907863  24.98999913533529 24.53643450529679  C 24.98999913533529 24.53643450529679  25 24.784259961998984  25 24.784259961998984  C 25 24.784259961998984  25 28.91304347826087  25 28.91304347826087  C 24.998333333254173 35.85217359791632  17.855000098546345 38  12.5 38  C 7.251666784286499 38  0.28500018020470935 35.93808592920718  0.008333524068196615 29.322781272556472  C 0.008333524068196615 29.322781272556472  0 28.91304347826087  0 28.91304347826087  C 0 28.91304347826087  0 24.782608695652176  0 24.782608695652176  C 0 23.041217358215995  1.3599997758865356 21.613739983543105  3.0833331743876142 21.488174770189367  Z M 36.666666666666664 21  L 25.366665522257485 21  C 25.366665522257485 21  36.666666666666664 21.47826086956522  36.666666666666664 21.47826086956522  C 38.42333336671194 21.47826086956522  39.863332472741604 22.82643534826196  39.98999913533529 24.534783238949984  C 39.98999913533529 24.534783238949984  40 24.782608695652176  40 24.782608695652176  C 40 24.782608695652176  40 28.086956521739133  40 28.086956521739133  C 39.99833333325417 34.29747836486153  34.28333322207133 36.34782608695652  30 36.34782608695652  C 28.23666671911875 36.34782608695652  26.234999895095825 35.99260804964149  24.484999974568687 35.14999936974567  C 25.73833326498667 33.67295590172644  26.551666719218098 31.792784037797347  26.655000050862633 29.42687092656675  C 26.655000050862633 29.42687092656675  26.666666666666664 28.91304347826087  26.666666666666664 28.91304347826087  C 26.666666666666664 28.91304347826087  26.666666666666664 24.784259961998984  26.666666666666664 24.784259961998984  C 26.666666666666664 23.624433838802837  26.251667787631355 22.57034627251003  25.57666778564453 21.72773759261422  C 25.57666778564453 21.72773759261422  25.366665522257485 21.47826086956522  25.366665522257485 21.47826086956522  L 36.666666666666664 21  Z M 12.5 0  C 13.703893224398296 0.00010850309042369403  14.895975887775421 0.2352782747019892  16.00818634033203 0.6920823299366495  C 17.12039679288864 1.1488863851713098  18.13095400730769 1.818378381107165  18.982157707214355 2.66233373724896  C 19.83336140712102 3.5062890933907553  20.50854196151098 4.508180079252823  20.969150861104332 5.610802152882451  C 21.429759760697685 6.71342422651208  21.666776101556025 7.895184776057368  21.666666666666664 9.088609363721767  C 21.66655723177731 10.282033951386163  21.429324597120285 11.46375067856001  20.96851348876953 12.566289735876998  C 20.507702380418777 13.668828793193983  19.832336803277332 14.670596977938777  18.9809783299764 15.514398906541908  C 18.129619856675465 16.358200835145038  17.11894194285075 17.027511829915255  16.00664774576823 17.484115434729535  C 14.89435354868571 17.940719039543815  13.702225883801777 18.17567438653382  12.498332659403484 18.175565885460898  C 10.066960453987122 18.17534675766365  7.735259135564169 17.217676204183828  6.016175746917725 15.513231360394023  C 4.297092358271281 13.808786516604219  3.331445773728774 11.497186360151872  3.331666787465413 9.08695652173913  C 3.331887801202053 6.67672668332639  4.297958413759868 4.3653010285418965  6.017354329427084 2.661166191101074  C 7.736750245094299 0.9570313536602517  10.068627794583637 -0.0002190183707953469  12.5 0  Z M 30.833333333333336 3.304347826086957  C 31.81824733813604 3.304347805511927  32.793518801530205 3.4966542772624805  33.703460693359375 3.8702870659206225  C 34.613402585188545 4.243919854578764  35.44019415974617 4.791561678699825  36.1366335550944 5.481945079305898  C 36.833072950442634 6.172328479911972  37.38551862537861 6.991932925970657  37.76242891947428 7.893962279610012  C 38.13933921356996 8.795991633249367  38.333333333333336 9.762780899586886  38.333333333333336 10.73913043478261  C 38.333333333333336 11.715479969978334  38.13933921356996 12.682269236315852  37.76242891947428 13.584298589955207  C 37.38551862537861 14.48632794359456  36.833072950442634 15.305931601835336  36.1366335550944 15.996315002441408  C 35.44019415974617 16.68669840304748  34.613402585188545 17.234341802804366  33.703460693359375 17.607974591462508  C 32.793518801530205 17.98160738012065  31.81824733813604 18.173913064053295  30.833333333333336 18.17391304347826  C 28.844209710756935 18.173913001925115  26.936555902163185 17.39060716007067  25.530033111572266 15.996315002441408  C 24.123510320981346 14.602022844812145  23.333333333333336 12.710957330206167  23.333333333333336 10.73913043478261  C 23.333333333333336 8.767303539359053  24.123510320981346 6.876237236935161  25.530033111572266 5.481945079305898  C 26.936555902163185 4.087652921676637  28.844209710756935 3.3043478676401015  30.833333333333336 3.304347826086957  Z " fill-rule="nonzero" fill="#000000" stroke="none" transform="matrix(1 0 0 1 955 1932 )" />
  </g>
</svg>