<?xml version="1.0" encoding="utf-8"?>
<svg version="1.1" xmlns:xlink="http://www.w3.org/1999/xlink" width="50px" height="50px" xmlns="http://www.w3.org/2000/svg">
  <g transform="matrix(1 0 0 1 -431 -2194 )">
    <path d="M 21.584615340599647 1.6941107391795465  C 21.584615340599647 1.6941107391795465  21.580769465519833 1.697962756334316  21.580769465519833 1.697962756334316  C 21.580769465519833 1.697962756334316  28.992308103121246 9.12045348100394  28.992308103121246 9.12045348100394  C 29.642907816630142 9.771426472343904  30.128682347444386 10.56873398627986  30.409130683312053 11.445896355070667  C 30.689579019179714 12.323058723861477  30.75657502676432 13.25465551560735  30.604527546809273 14.163011635488697  C 30.45248006685422 15.07136775537005  30.085797894459503 15.930157967600628  29.53505516052246 16.66777786961273  C 28.98431242658542 17.405397771624838  28.265467228797768 18.000470797632495  27.438460863553566 18.403379526315305  C 27.438460863553566 18.403379526315305  21.10384610983042 21.49255310356228  21.10384610983042 21.49255310356228  C 20.188171072648124 21.939399089456433  19.486882824164173 22.731765481077407  19.15384622720572 23.695804060941676  C 19.15384622720572 23.695804060941676  17.69230732550988 27.94052768364695  17.69230732550988 27.94052768364695  C 17.479341591780003 28.5581026554077  17.113013794788948 29.11127572526655  16.627781207744892 29.548014069114988  C 16.142548620700836 29.984752412963424  15.55435978449308 30.29070194047258  14.91854190826416 30.43708295451415  C 14.28272403203524 30.583463968555712  13.620175937047371 30.56546533632256  12.993216514587402 30.384781111386616  C 12.366257092127432 30.20409688645067  11.795494046348795 29.866665604825005  11.334615487318775 29.404226244593218  C 11.334615487318775 29.404226244593218  7.6923076923076925 25.756536352866625  7.6923076923076925 25.756536352866625  L 2.7192308352543764 30.73311109274412  L 0 30.73311109274412  L 0 28.009863074083256  L 4.973076857053316 23.037139892185763  C 4.973076857053316 23.037139892185763  1.3269231869624212 19.385598442479175  1.3269231869624212 19.385598442479175  C 0.8660740290696806 18.92397698730841  0.5299271872410408 18.3526352614082  0.35004569933964663 17.72521879677843  C 0.1701642114382524 17.097802332148664  0.15244936713805565 16.43489389618977  0.29856425065260667 15.798740024428099  C 0.44467913416715776 15.16258615266643  0.749830213876871 14.574056969813851  1.185365365101741 14.0884104287774  C 1.620900516326611 13.60276388774095  2.172531187534333 13.235934658856104  2.7884616301609926 13.022364566401265  C 2.7884616301609926 13.022364566401265  7.026922702789307 11.558666005454997  7.026922702789307 11.558666005454997  C 7.505293219135358 11.392608792852489  7.946220326882143 11.133598334573106  8.3244094481835 10.79649282309833  C 8.702598569484858 10.459387311623551  9.010608222049017 10.05082054531596  9.230769597567045 9.594229091476798  C 9.230769597567045 9.594229091476798  12.31538515824538 3.250253234886262  12.31538515824538 3.250253234886262  C 12.717699402799973 2.4220248344674946  13.311894409931623 1.702119148965479  14.04842596787673 1.150562603888292  C 14.784957525821833 0.5990060588111046  15.642481526503197 0.23178257098841962  16.54949738429143 0.07951041637968244  C 17.456513242079662 -0.07276173822905474  18.386735480565296 -0.005669488295635085  19.2626036130465 0.2751932551817873  C 20.13847174552771 0.5560559986592096  20.934602847466103 1.0425496597514947  21.584615340599647 1.6941107391795465  Z M 3.8461538461538463 40.370407104352054  L 3.8461538461538463 34.31146743073349  L 7.515384600712703 30.636812959748745  L 7.6923076923076925 30.810145925742255  C 7.6923076923076925 30.810145925742255  7.6923076923076925 40.370407104352054  7.6923076923076925 40.370407104352054  C 7.692307692307695 41.902763198978796  8.300135800471674 43.37235871192293  9.382076446826641 44.4558980999348  C 10.46401709318161 45.539437487946664  11.931443329040821 46.14816284174081  13.461538461538462 46.14816284174083  C 13.461538461538462 46.14816284174083  26.923076923076923 46.14816284174083  26.923076923076923 46.14816284174083  C 26.923076923076923 46.14816284174083  26.923076923076923 36.51856994609288  26.923076923076923 36.51856994609288  C 26.923076923076923 33.96464308345042  27.93612342614394 31.515318529538717  29.73935787494366 29.709419511254374  C 31.542592323743385 27.903520492970035  33.988302946090705 26.888977050444947  36.53846153846154 26.88897705044494  C 36.53846153846154 26.88897705044494  46.15384615384615 26.88897705044494  46.15384615384615 26.88897705044494  C 46.15384615384615 26.88897705044494  46.15384615384615 13.407547914887363  46.15384615384615 13.407547914887363  C 46.153846153846146 11.875191820260628  45.54601896267671 10.405597225666034  44.46407831632174 9.32205783765417  C 43.38213766996677 8.238518449642303  41.914710517113036 7.629791718323829  40.384615384615394 7.629791718323829  C 40.384615384615394 7.629791718323829  32.546153435340294 7.629791718323829  32.546153435340294 7.629791718323829  C 32.38931273898253 7.444760600623559  32.22507542142502 7.266146923873415  32.053844745342545 7.094386588423285  C 32.053844745342545 7.094386588423285  28.742306049053486 3.7779547896520373  28.742306049053486 3.7779547896520373  C 28.742306049053486 3.7779547896520373  40.384615384615394 3.7779547896520373  40.384615384615394 3.7779547896520373  C 42.934773976986236 3.7779547896520373  45.38048459933355 4.7924980025897455  47.18371904813327 6.598397020874085  C 48.986953496933 8.404296039158424  50 10.853621052244906  50 13.407547914887363  C 50 13.407547914887363  50 27.551492777180854  50 27.551492777180854  C 49.99945560104187 30.10426711114785  48.98679714936476 32.55236784950088  47.18461403479943 34.35768979989164  C 47.18461403479943 34.35768979989164  34.380769729614265 47.18045384834376  34.380769729614265 47.18045384834376  C 32.57811149725548 48.98529997887797  30.133622884750373 49.99945479660468  27.58461512052096 50  C 27.58461512052096 50  13.461538461538462 50  13.461538461538462 50  C 10.911379869167622 50.000000000000014  8.465669246820303 48.985456557474905  6.662434798020583 47.17955753919056  C 4.859200349220863 45.37365852090622  3.8461538461538463 42.924333966994524  3.8461538461538463 40.370407104352054  Z M 30.76923076923077 36.51856994609288  C 30.76923076923077 36.51856994609288  30.76923076923077 45.185203552176034  30.76923076923077 45.185203552176034  C 31.088461526311363 44.973352509619716  31.384616746352272 44.7306883718581  31.661539811354416 44.453356108401984  C 31.661539811354416 44.453356108401984  44.46538411653959 31.63444178123077  44.46538411653959 31.63444178123077  C 44.73846104855721 31.36096133404046  44.98077077934376 31.060516680671498  45.19615540137658 30.740814208704116  C 45.19615540137658 30.740814208704116  36.53846153846154 30.740814208704116  36.53846153846154 30.740814208704116  C 35.008366405963905 30.740814208704116  33.54093925311015 31.34953956249828  32.45899860675519 32.433078950510144  C 31.37705796040022 33.516618338522015  30.76923076923078 34.98621385146615  30.76923076923077 36.51856994609288  Z " fill-rule="nonzero" fill="#000000" stroke="none" transform="matrix(1 0 0 1 431 2194 )" />
  </g>
</svg>