<?xml version="1.0" encoding="utf-8"?>
<svg version="1.1" xmlns:xlink="http://www.w3.org/1999/xlink" width="17px" height="20px" xmlns="http://www.w3.org/2000/svg">
  <g transform="matrix(1 0 0 1 -1547 -1393 )">
    <path d="M 16.643705016704605 15.586071897051873  C 16.338487345455274 16.284816183773557  15.977210350026871 16.92800803096649  15.558626136386254 17.519348171774485  C 14.988055979721441 18.32549666327687  14.520885935331066 18.88350415714081  14.16085365583657 19.193371330336863  C 13.602741351181175 19.701997913188215  13.004764098306818 19.96248463251077  12.364429910985546 19.977298999081956  C 11.904734726310132 19.977298999081956  11.350358856499836 19.84767232326783  10.705041528374798 19.58471729662368  C 10.057606338676482 19.322996828810886  9.46261923166077 19.193371330336863  8.918584302746202 19.193371330336863  C 8.34801414608139 19.193371330336863  7.7360840870757395 19.322996828810886  7.081547895000381 19.58471729662368  C 6.426015086645014 19.84767232326783  5.897926641949685 19.9847059565574  5.494167281110834 19.998285792810936  C 4.880119182320737 20.02421093408056  4.268064019072034 19.756317265560742  3.657130398135221 19.193371330336863  C 3.2671992441162643 18.856344480954544  2.779473818165005 18.278583133350345  2.1951999945879717 17.46008934786943  C 1.5683202755561252 16.58604171005165  1.0529387032818365 15.572491867640977  0.6491793424429853 14.416971291644757  C 0.2167668922806132 13.168860922509076  0 11.96025561183869  0 10.790167571287707  C 0 9.449837682474765  0.2922615110999144 8.293823212305597  0.8776565205664919 7.325087054881849  C 1.3377254437723765 6.546962436634378  1.9497801614931474 5.933153937312573  2.715814233009305 5.482550265593798  C 3.4818483045254625 5.031946593875025  4.309548966252199 4.802323719324169  5.200909153730912 4.7876328051408885  C 5.6886345202784465 4.7876328051408885  6.328220874116436 4.9371343946913075  7.12303260456565 5.230952685715277  C 7.9156019038320515 5.525758588484127  8.424505039609285 5.67526059010358  8.64762538295135 5.67526059010358  C 8.814436178777312 5.67526059010358  9.37977497617701 5.500450779978399  10.338158425287503 5.151942804252703  C 11.244468035177517 4.828742695899739  12.009379851537094 4.694919869585095  12.636010431349868 4.747634323438684  C 14.33401729383581 4.883432689653243  15.609703537537898 5.54674591201615  16.458084061329465 6.741771546477667  C 14.939470505394027 7.653595848623449  14.188260500508472 8.930717585024912  14.20320993684252 10.569063100060816  C 14.216913587047442 11.845197342451408  14.68408296500229 12.90714021922826  15.602227519450317 13.750324592666225  C 16.01832016268905 14.141670794421067  16.482998636677543 14.444130850097007  17 14.658939171357897  C 16.88787922795873 14.981151638532475  16.769529440807165 15.289784547232198  16.643705016704605 15.586071897051873  Z M 12.749377448970945 0.4001113222160404  C 12.749377448970945 1.4003403855063592  12.380624613666134 2.3342504106326802  11.645610632265845 3.1986687014871125  C 10.758610737543222 4.22629199654559  9.685739560151905 4.82010115935741  8.522299682814864 4.726400288288207  C 8.507474824444001 4.606403916026264  8.498878457688111 4.480111482098826  8.498878457688111 4.347399439378899  C 8.498878457688111 3.3871815730638897  8.920701986108305 2.3595582191384072  9.669793343249424 1.5193366809350866  C 10.043778428875209 1.0939174324793095  10.519419266117728 0.7401875118970216  11.09621837848911 0.45801084810589043  C 11.67177167595769 0.18004394045183295  12.216181085949277 0.0263201922221993  12.728199308467968 0  C 12.743148744802017 0.13371200181913173  12.749377448970945 0.2674363657093385  12.749377448970945 0.4000990190119705  Z " fill-rule="nonzero" fill="#c8c8c8" stroke="none" transform="matrix(1 0 0 1 1547 1393 )" />
  </g>
</svg>