<?xml version="1.0" encoding="utf-8"?>
<svg version="1.1" xmlns:xlink="http://www.w3.org/1999/xlink" width="50px" height="48px" xmlns="http://www.w3.org/2000/svg">
  <g transform="matrix(1 0 0 1 -1112 -2196 )">
    <path d="M 3.8541664679845176 27.142957604449727  C 3.8541664679845176 27.142957604449727  4.166666666666666 27.1304347826087  4.166666666666666 27.1304347826087  C 4.166666666666666 27.1304347826087  27.083333333333332 27.132520592730977  27.083333333333332 27.132520592730977  C 28.134174396594364 27.132713794308394  29.146136964360874 27.530654948690668  29.916489124298096 28.246617856233016  C 30.686841284235317 28.962580763775374  31.158685854946572 29.94368710725204  31.23749891916911 30.9933909540591  C 31.23749891916911 30.9933909540591  31.25 31.306433636209242  31.25 31.306433636209242  C 31.25 31.306433636209242  31.25 36.52173913043478  31.25 36.52173913043478  C 31.247916666567715 45.28695612368377  22.31875012318293 48  15.625 48  C 9.064583480358124 48  0.3562502252558867 45.39547696320907  0.01041690508524577 37.03930266007133  C 0.01041690508524577 37.03930266007133  0 36.52173913043478  0 36.52173913043478  C 0 36.52173913043478  0 31.304347826086957  0 31.304347826086957  C 0 29.1046956103781  1.6999997198581696 27.30156629500182  3.8541664679845176 27.142957604449727  Z M 45.83333333333333 27  L 31.708331902821858 27  C 31.708331902821858 27  45.83333333333333 27.1304347826087  45.83333333333333 27.1304347826087  C 48.02916670838992 27.1304347826087  49.829165590927005 28.83339201885721  49.98749891916911 30.991305143936824  C 49.98749891916911 30.991305143936824  50 31.304347826086957  50 31.304347826086957  C 50 31.304347826086957  50 35.47826086956522  50 35.47826086956522  C 49.99791666656772 43.32313056614088  42.85416652758916 45.913043478260875  37.5 45.913043478260875  C 35.29583339889844 45.913043478260875  32.79374986886978 45.46434701007346  30.606249968210857 44.399999203889266  C 32.17291658123334 42.53426008639129  33.189583399022624 40.15930615300717  33.31875006357829 37.17078432829484  C 33.31875006357829 37.17078432829484  33.33333333333333 36.52173913043478  33.33333333333333 36.52173913043478  C 33.33333333333333 36.52173913043478  33.33333333333333 31.306433636209242  33.33333333333333 31.306433636209242  C 33.33333333333333 29.841390112172004  32.814584734539196 28.5099110810653  31.970834732055664 27.445563274881117  C 31.970834732055664 27.445563274881117  31.708331902821858 27.1304347826087  31.708331902821858 27.1304347826087  L 45.83333333333333 27  Z M 15.625 0  C 17.12986653049787 0.00013705653527203458  18.619969859719276 0.2971936101498811  20.01023292541504 0.8742092588673468  C 21.4004959911108 1.4512249075848125  22.663692509134613 2.2968990077143134  23.727697134017944 3.362947878630265  C 24.791701758901276 4.428996749546217  25.63567745188872 5.694543258003566  26.211438576380413 7.0873290352199385  C 26.787199700872105 8.480114812436312  27.08347012694503 9.972864980282992  27.083333333333332 11.480348669964336  C 27.083196539721637 12.98783235964568  26.786655746400356 14.480527172917906  26.210641860961914 15.873208087423576  C 25.634627975523472 17.265889001929242  24.790421004096665 18.531280393185824  23.726222912470497 19.59713546089504  C 22.66202482084433 20.662990528604258  21.39867742856344 21.508435995682426  20.00830968221029 22.08519844386889  C 18.61794193585714 22.661960892055344  17.12778235475222 22.958746593516405  15.622915824254354 22.958609539529554  C 12.583700567483902 22.958332746522505  9.669073919455212 21.74864362633747  7.520219683647156 19.59566066576087  C 5.371365447839102 17.442677705184273  4.164307217160967 14.522761718086576  4.164583484331766 11.478260869565219  C 4.164859751502567 8.433760021043861  5.372448017199835 5.514064457105554  7.5216929117838545 3.3614730834960938  C 9.670937806367874 1.2088817098866338  12.585784743229548 -0.0002766547841625435  15.625 0  Z M 38.54166666666667 4.173913043478262  C 39.77280917267005 4.17391301748875  40.99189850191276 4.416826455489449  42.12932586669922 4.888783662215523  C 43.26675323148568 5.360740868941598  44.30024269968271 6.052498962568199  45.170791943868 6.924562205439029  C 46.041341188053295 7.796625448309859  46.73189828172326 8.831915274910305  47.20303614934285 9.971320774244225  C 47.67417401696245 11.110726273578146  47.91666666666667 12.331933767899223  47.91666666666667 13.56521739130435  C 47.91666666666667 14.798501014709476  47.67417401696245 16.01970850903055  47.20303614934285 17.159114008364472  C 46.73189828172326 18.298519507698394  46.041341188053295 19.333808339160424  45.170791943868 20.205871582031254  C 44.30024269968271 21.07793482490208  43.26675323148568 21.769694908805516  42.12932586669922 22.24165211553159  C 40.99189850191276 22.713609322257664  39.77280917267005 22.956521765119952  38.54166666666667 22.956521739130437  C 36.05526213844617 22.956521686642247  33.67069487770398 21.96708272851032  31.912541389465332 20.205871582031254  C 30.15438790122668 18.444660435552183  29.166666666666668 16.055946101313054  29.166666666666668 13.56521739130435  C 29.166666666666668 11.074488681295646  30.15438790122668 8.685773351918098  31.912541389465332 6.924562205439029  C 33.67069487770398 5.163351058959962  36.05526213844617 4.173913095966444  38.54166666666667 4.173913043478262  Z " fill-rule="nonzero" fill="#000000" stroke="none" transform="matrix(1 0 0 1 1112 2196 )" />
  </g>
</svg>