<?xml version="1.0" encoding="utf-8"?>
<svg version="1.1" xmlns:xlink="http://www.w3.org/1999/xlink" width="50px" height="50px" xmlns="http://www.w3.org/2000/svg">
  <g transform="matrix(1 0 0 1 -658 -2194 )">
    <path d="M 10.348615609421664 3.554166687859429  C 10.348615609421664 3.554166687859429  12.43194872199708 7.16249942779541  12.43194872199708 7.16249942779541  C 12.43194872199708 7.16249942779541  10.026392933909847 8.5513883166843  10.026392933909847 8.5513883166843  C 10.026392933909847 8.5513883166843  11.533337271654629 11.16249958674113  11.533337271654629 11.16249958674113  C 10.973628440975776 11.817701078123516  10.630754765755096 12.630276547537909  10.55190848754157 13.48838276333279  C 10.473062209328047 14.346488979127672  10.662120361500808 15.207939594984055  11.093060324662492 15.954165988498263  C 11.093060324662492 15.954165988498263  11.401392470318214 16.488888528611927  11.401392470318214 16.488888528611927  C 9.178351880089243 17.940140763918556  7.35249168250384 19.923070238696205  6.0892045668279255 22.258053885565865  C 4.825917451152012 24.59303753243552  4.165120125228693 27.206296390957302  4.166671192204031 29.86111111111111  C 4.166671192204031 31.59444448020723  4.444448717030025 33.266666531562805  4.955559774975271 34.83333322736952  C 3.408046036768379 36.06814013587104  2.158847719155659 37.635965479744804  1.300882906952656 39.42018614874945  C 0.4429180947496526 41.204406817754105  -0.001732504641807303 43.15910504923926  0 45.13888888888889  C 0 46.486111150847535  0.20278313428474695 47.79166488183869  0.5805608925622417 49.01944266425238  C 0.5805608925622417 49.01944266425238  0.8819497187190883 50  0.8819497187190883 50  C 0.8819497187190883 50  45.83333377484917 50  45.83333377484917 50  C 46.201689985215395 50  46.5549603236757 49.8536721078886  46.81542748181794 49.59320492214626  C 47.07589463996017 49.33273773640394  47.22222251656611 48.97946736050977  47.22222251656611 48.61111111111111  C 47.22222251656611 48.242754861712456  47.07589463996017 47.889484485818286  46.81542748181794 47.62901730007595  C 46.5549603236757 47.36855011433363  46.201689985215395 47.22222222222222  45.83333377484917 47.22222222222222  C 45.83333377484917 47.22222222222222  26.225002476903864 47.22222222222222  26.225002476903864 47.22222222222222  C 26.620307351649352 44.72094294097688  26.29262865793666 42.15878579351637  25.280557708681133 39.83749813503689  C 25.280557708681133 39.83749813503689  44.226387423792154 28.898610009087456  44.226387423792154 28.898610009087456  C 44.226387423792154 28.898610009087456  42.837498682075214 26.493056615193684  42.837498682075214 26.493056615193684  C 42.837498682075214 26.493056615193684  23.901391145770692 37.426386939154725  23.901391145770692 37.426386939154725  C 22.679863370936353 35.72847892840703  21.071708618618796 34.34573610623677  19.209896807151708 33.39249028099908  C 17.348084995684623 32.439244455761376  15.286102761310708 31.94288250330525  13.194448344501033 31.944444444444443  C 11.183579405564263 31.941470222793413  9.198846438318204 32.3999974462721  7.393060006771086 33.28472243414984  C 7.094438512219215 32.16804944806629  6.943614503678012 31.017023159397976  6.9444490067747955 29.86111111111111  C 6.942898002857752 27.693836390972137  7.475796957063998 25.55962022807863  8.49595509677939 23.64745934804281  C 9.516113236494782 21.735298468006985  10.992050330686535 20.104200724098416  12.793060112734889 18.898611598544647  C 12.793060112734889 18.898611598544647  16.64861396698274 25.576390160454643  16.64861396698274 25.576390160454643  C 17.201165605130132 26.533361027638115  18.111231659652745 27.231642914315064  19.178618941983228 27.517633967929417  C 20.24600622431371 27.803625021543766  21.38328433280157 27.653899126582683  22.34027943714148 27.101389567057293  C 22.34027943714148 27.101389567057293  23.543058655732615 26.406945122612846  23.543058655732615 26.406945122612846  C 23.543058655732615 26.406945122612846  24.931947397449555 28.812501165601944  24.931947397449555 28.812501165601944  C 24.931947397449555 28.812501165601944  27.33750318553679 27.423612276713055  27.33750318553679 27.423612276713055  C 27.33750318553679 27.423612276713055  25.948614443819846 25.018056233723957  25.948614443819846 25.018056233723957  C 25.948614443819846 25.018056233723957  27.15139101331594 24.32361178927951  27.15139101331594 24.32361178927951  C 28.108361779095148 23.771060092581642  28.806646240874528 22.860993941624958  29.09263726418418 21.793606546190052  C 29.378628287493836 20.72621915075514  29.22889975930323 19.588940921756954  28.676390258323853 18.6319457160102  C 28.676390258323853 18.6319457160102  23.120835291456086 9.009722868601482  23.120835291456086 9.009722868601482  C 22.68998510778108 8.263598134120306  22.038502063247673 7.669327201114759  21.25602602894825 7.308681805928548  C 20.473549994648828 6.948036410742336  19.59853701408312 6.838740015195476  18.75139143717115 6.995832920074463  C 18.75139143717115 6.995832920074463  17.24306029817154 4.384721650017632  17.24306029817154 4.384721650017632  C 17.24306029817154 4.384721650017632  14.83750451008431 5.773610538906522  14.83750451008431 5.773610538906522  C 14.83750451008431 5.773610538906522  12.754170072961376 2.16527779897054  12.754170072961376 2.16527779897054  C 12.754170072961376 2.16527779897054  10.348615609421664 3.554166687859429  10.348615609421664 3.554166687859429  Z M 40.277778807981406 4.30555608537462  C 40.277778807981406 4.30555608537462  40.277778807981406 2.7777777777777777  40.277778807981406 2.7777777777777777  C 40.64613501834763 2.7777777777777777  40.999405356807934 2.6314485611187086  41.25987251495017 2.3709813753763838  C 41.5203396730924 2.1105141896340585  41.66666754969835 1.7572451382875443  41.66666754969835 1.3888888888888888  C 41.66666754969835 1.0205326394902337  41.5203396730924 0.6672635881437197  41.25987251495017 0.4067964024013943  C 40.999405356807934 0.14632921665906912  40.64613501834763 0  40.277778807981406 0  C 40.277778807981406 0  37.50000132454752 0  37.50000132454752 0  C 37.131645114181296 0  36.77837477572099 0.14632921665906912  36.51790761757876 0.4067964024013943  C 36.25744045943652 0.6672635881437197  36.111112582830586 1.0205326394902337  36.11111258283058 1.3888888888888888  C 36.111112582830586 1.7572451382875443  36.25744045943652 2.1105141896340585  36.51790761757876 2.3709813753763838  C 36.77837477572099 2.6314485611187086  37.131645114181296 2.7777777777777777  37.50000132454752 2.7777777777777777  C 37.50000132454752 2.7777777777777777  37.50000132454752 4.30555608537462  37.50000132454752 4.30555608537462  C 36.61389029143754 4.486111634307437  35.787501533163756 4.833333442608515  35.05972384773637 5.316666762034098  C 35.05972384773637 5.316666762034098  33.908334423877456 4.166666666666666  33.908334423877456 4.166666666666666  C 34.16133171348898 3.90471921612819  34.30132382657425 3.5538822412490845  34.298159355782474 3.1897200478447805  C 34.2949948849907 2.825557854440477  34.14892854701905 2.4772074487474227  33.891417302935146 2.2196961773766413  C 33.63390605885124 1.9621849060058594  33.28555502779695 1.8161172280088067  32.92139287298067 1.8129527568817139  C 32.55723071816437 1.809788285754621  32.206393780461276 1.9497804136739836  31.94444635767975 2.202777730094062  C 31.94444635767975 2.202777730094062  30.97500207953961 3.1722227732340493  30.97500207953961 3.1722227732340493  C 30.97500207953961 3.1722227732340493  30.961112874231034 3.1847225295172796  30.961112874231034 3.1847225295172796  C 30.961112874231034 3.1847225295172796  30.950002569622193 3.1986117362976074  30.950002569622193 3.1986117362976074  C 30.950002569622193 3.1986117362976074  29.980558291482044 4.166666666666666  29.980558291482044 4.166666666666666  C 29.727561001870523 4.428614117205143  29.58756888878526 4.779451092084249  29.590733359577037 5.143613285488553  C 29.59389783036881 5.507775478892856  29.739964168340453 5.85612522231208  29.997475412424357 6.113636493682861  C 30.254986656508265 6.371147765053643  30.603337687562554 6.517216767598357  30.967499842378842 6.52038123872545  C 31.331661997195138 6.5235457098525425  31.682498934898227 6.383552257385518  31.94444635767975 6.13055494096544  C 31.94444635767975 6.13055494096544  33.09444500664128 7.281944486829969  33.09444500664128 7.281944486829969  C 32.6035259306006 8.022731790939966  32.26021107757504 8.851313177082273  32.083335761670455 9.722222222222223  C 32.083335761670455 9.722222222222223  30.555557615962815 9.722222222222223  30.555557615962815 9.722222222222223  C 30.555557615962815 9.353865972823566  30.409229739356864 9.000596921477053  30.148762581214633 8.740129735734726  C 29.888295423072396 8.479662549992401  29.535025084612094 8.333333333333332  29.166668874245865 8.333333333333332  C 28.79831266387964 8.333333333333332  28.44504232541934 8.479662549992401  28.184575167277103 8.740129735734726  C 27.924108009134873 9.000596921477053  27.777780132528925 9.353865972823566  27.777780132528925 9.722222222222223  C 27.777780132528925 9.722222222222223  27.777780132528925 12.5  27.777780132528925 12.5  C 27.777780132528925 12.868356249398657  27.924108009134873 13.221625300745169  28.184575167277103 13.482092486487495  C 28.44504232541934 13.74255967222982  28.79831266387964 13.888888888888888  29.166668874245865 13.888888888888888  C 29.535025084612094 13.888888888888888  29.888295423072396 13.74255967222982  30.148762581214633 13.482092486487495  C 30.409229739356864 13.221625300745169  30.555557615962815 12.868356249398657  30.555557615962815 12.5  C 30.555557615962815 12.5  32.083335761670455 12.5  32.083335761670455 12.5  C 32.26389129147092 13.386111127005684  32.61111173843154 14.212499972846773  33.09444500664128 14.940277735392252  C 33.09444500664128 14.940277735392252  31.94444635767975 16.091667281256782  31.94444635767975 16.091667281256782  C 31.816325763042023 15.959014226165083  31.663068040069014 15.853204754077725  31.493618065132768 15.780414475335014  C 31.32416809019652 15.707624196592304  31.141920502677706 15.669311237515004  30.957504806782953 15.66770871480306  C 30.7730891108882 15.666106192091117  30.590200038795995 15.70124715152714  30.419510690952862 15.771081712510851  C 30.248821343109732 15.84091627349456  30.093748338106778 15.944044281625086  29.963341822799915 16.074450810750328  C 29.832935307493045 16.204857339875566  29.72980731029035 16.35993036131064  29.659972756706583 16.53061972724067  C 29.590138203122805 16.701309093170696  29.55499724741045 16.884198184642525  29.556599769952584 17.068613900078667  C 29.558202292494716 17.253029615514805  29.59651524751224 17.43527722234527  29.66930551854181 17.604727215237087  C 29.742095789571387 17.7741772081289  29.84790525044677 17.92743494734168  29.980558291482044 18.055555555555554  C 29.980558291482044 18.055555555555554  31.94444635767975 20.019443829854332  31.94444635767975 20.019443829854332  C 32.206393780461276 20.27244114627441  32.55723071816437 20.41243327419377  32.92139287298067 20.409268803066677  C 33.28555502779695 20.406104331939584  33.63390605885124 20.260037978490193  33.891417302935146 20.00252670711941  C 34.14892854701905 19.745015435748627  34.2949948849907 19.396664367781746  34.298159355782474 19.03250217437744  C 34.30132382657425 18.668339980973137  34.16133171348898 18.317503006094032  33.908334423877456 18.055555555555554  C 33.908334423877456 18.055555555555554  35.05972384773637 16.905556784735786  35.05972384773637 16.905556784735786  C 35.800511073349725 17.396475912796127  36.62909237169241 17.739790802200638  37.50000132454752 17.916666136847603  C 37.50000132454752 17.916666136847603  37.50000132454752 19.444444444444446  37.50000132454752 19.444444444444446  C 37.131645114181296 19.444444444444446  36.77837477572099 19.59077233655585  36.51790761757876 19.85123952229818  C 36.25744045943652 20.111706708040504  36.111112582830586 20.464977083934677  36.11111258283058 20.833333333333336  C 36.111112582830586 21.20168958273199  36.25744045943652 21.554959958626164  36.51790761757876 21.815427144368492  C 36.77837477572099 22.075894330110817  37.131645114181296 22.22222222222222  37.50000132454752 22.22222222222222  C 37.50000132454752 22.22222222222222  40.277778807981406 22.22222222222222  40.277778807981406 22.22222222222222  C 40.64613501834763 22.22222222222222  40.999405356807934 22.075894330110817  41.25987251495017 21.815427144368492  C 41.5203396730924 21.554959958626164  41.66666754969835 21.20168958273199  41.66666754969835 20.833333333333336  C 41.66666754969835 20.464977083934677  41.5203396730924 20.111706708040504  41.25987251495017 19.85123952229818  C 40.999405356807934 19.59077233655585  40.64613501834763 19.444444444444446  40.277778807981406 19.444444444444446  C 40.277778807981406 19.444444444444446  40.277778807981406 17.916666136847603  40.277778807981406 17.916666136847603  C 41.14868776083652 17.739790802200638  41.97726905917919 17.396475912796127  42.71805628479255 16.905556784735786  C 42.71805628479255 16.905556784735786  43.869443059556424 18.055555555555554  43.869443059556424 18.055555555555554  C 43.6164457699449 18.317503006094032  43.47645365685964 18.668339980973137  43.479618127651406 19.03250217437744  C 43.48278259844319 19.396664367781746  43.628854234604916 19.745015435748627  43.88636547868883 20.00252670711941  C 44.14387672277273 20.260037978490193  44.49222775382702 20.406104331939584  44.85638990864331 20.409268803066677  C 45.2205520634596 20.41243327419377  45.57138635206764 20.27244114627441  45.83333377484917 20.019443829854332  C 45.83333377484917 20.019443829854332  47.79722449014192 18.055555555555554  47.79722449014192 18.055555555555554  C 48.05022177975344 17.79360810501708  48.190213892838706 17.44277113013797  48.18704942204693 17.07860893673367  C 48.18388495125516 16.714446743329365  48.03781331509343 16.36609567536248  47.78030207100952 16.1085844039917  C 47.522790826925615 15.851073132620918  47.17443979587133 15.705006779171526  46.81027764105504 15.701842308044434  C 46.446115486238746 15.69867783691734  46.0952811976307 15.838669964836704  45.83333377484917 16.091667281256782  C 45.83333377484917 16.091667281256782  44.683335125887645 14.940277735392252  44.683335125887645 14.940277735392252  C 45.174254201928335 14.199490431282252  45.517571704048926 13.370909045139948  45.69444701995351 12.5  C 45.69444701995351 12.5  47.22222251656611 12.5  47.22222251656611 12.5  C 47.22222251656611 12.868356249398657  47.36855039317206 13.221625300745169  47.6290175513143 13.482092486487495  C 47.889484709456525 13.74255967222982  48.24275504791684 13.888888888888888  48.61111125828306 13.888888888888888  C 48.97946746864929 13.888888888888888  49.33273780710958 13.74255967222982  49.593204965251815 13.482092486487495  C 49.85367212339405 13.221625300745169  50 12.868356249398657  50 12.5  C 50 12.5  50 9.722222222222223  50 9.722222222222223  C 50 9.353865972823566  49.85367212339405 9.000596921477053  49.593204965251815 8.740129735734726  C 49.33273780710958 8.479662549992401  48.97946746864929 8.333333333333332  48.61111125828306 8.333333333333332  C 48.24275504791684 8.333333333333332  47.889484709456525 8.479662549992401  47.6290175513143 8.740129735734726  C 47.36855039317206 9.000596921477053  47.22222251656611 9.353865972823566  47.22222251656611 9.722222222222223  C 47.22222251656611 9.722222222222223  45.69444701995351 9.722222222222223  45.69444701995351 9.722222222222223  C 45.517571704048926 8.851313177082273  45.174254201928335 8.022731790939966  44.683335125887645 7.281944486829969  C 44.683335125887645 7.281944486829969  45.83333377484917 6.13055494096544  45.83333377484917 6.13055494096544  C 45.9614543694869 6.263207996057138  46.11471209245991 6.369017468144496  46.28416206739615 6.441807746887207  C 46.4536120423324 6.514598025629918  46.63585962985122 6.552912309254882  46.82027532574597 6.554514831966824  C 47.004691021640724 6.556117354678766  47.18758009373293 6.520976395242744  47.35826944157606 6.451141834259033  C 47.52895878941919 6.381307273275322  47.68403179442215 6.2781779405971365  47.81443830972901 6.147771411471896  C 47.94484482503588 6.017364882346657  48.04797282223857 5.862291860911581  48.11780737582234 5.691602494981554  C 48.18764192940612 5.520913129051527  48.22278288511847 5.338025362127357  48.22118036257634 5.153609646691216  C 48.219577840034205 4.9691939312550755  48.18126223592164 4.786943675329288  48.10847196489207 4.617493682437472  C 48.0356816938625 4.448043689545658  47.9298775311772 4.294787274880541  47.79722449014192 4.166666666666666  C 47.79722449014192 4.166666666666666  45.83333377484917 2.202777730094062  45.83333377484917 2.202777730094062  C 45.705213180211445 2.0701246750023627  45.55195545723844 1.964315865188837  45.382505482302186 1.8915255864461262  C 45.21305550736594 1.8187353077034154  45.03080791984713 1.7804210240784515  44.84639222395238 1.7788185013665094  C 44.66197652805762 1.7772159786545672  44.47908745596541 1.8123576003644202  44.30839810812228 1.882192161348131  C 44.13770876027915 1.952026722331842  43.9826357552762 2.055156055010027  43.85222923996933 2.1855625841352677  C 43.721822724662466 2.3159691132605076  43.618694727459776 2.471041472421752  43.548860173876 2.6417308383517795  C 43.479025620292234 2.8124202042818065  43.443884664579876 2.995307971205976  43.445487187122005 3.179723686642117  C 43.44708970966414 3.3641394020782576  43.485405313776695 3.5463896580040455  43.55819558480627 3.7158396508958607  C 43.630985855835846 3.8852896437876754  43.73679001852114 4.038546058452792  43.869443059556424 4.166666666666666  C 43.869443059556424 4.166666666666666  42.71805628479255 5.316666762034098  42.71805628479255 5.316666762034098  C 41.97726905917919 4.825747633973757  41.14868776083652 4.4824314200215865  40.277778807981406 4.30555608537462  Z M 17.579169529896895 41.07638994852702  C 17.579169529896895 41.07638994852702  23.901391145770692 37.426386939154725  23.901391145770692 37.426386939154725  C 24.44475332156782 38.17927084035343  24.907041971798265 38.98746131194963  25.280557708681133 39.83749813503689  C 25.280557708681133 39.83749813503689  18.968058271613835 43.48194334242079  18.968058271613835 43.48194334242079  C 18.968058271613835 43.48194334242079  17.579169529896895 41.07638994852702  17.579169529896895 41.07638994852702  Z " fill-rule="nonzero" fill="#000000" stroke="none" transform="matrix(1 0 0 1 658 2194 )" />
  </g>
</svg>