<?xml version="1.0" encoding="utf-8"?>
<svg version="1.1" xmlns:xlink="http://www.w3.org/1999/xlink" width="15px" height="26px" xmlns="http://www.w3.org/2000/svg">
  <g transform="matrix(1 0 0 1 -1158 -6233 )">
    <path d="M 14.742268041237113 12.400801603206414  C 14.91408934707904 12.57448229792919  15 12.774215096860386  15 13  C 15 13.22578490313961  14.91408934707904 13.425517702070806  14.742268041237113 13.599198396793586  L 2.731958762886598 25.739478957915832  C 2.5601374570446738 25.913159652638612  2.3625429553264605 26  2.1391752577319587 26  C 1.9158075601374573 26  1.718213058419244 25.913159652638612  1.5463917525773194 25.739478957915832  L 0.2577319587628866 24.436873747494992  C 0.08591065292096225 24.26319305277221  0 24.063460253841015  0 23.837675350701403  C 0 23.611890447561787  0.08591065292096225 23.412157648630597  0.2577319587628866 23.238476953907817  L 10.38659793814433 13  L 0.2577319587628866 2.7615230460921842  C 0.08591065292096225 2.587842351369404  0 2.388109552438209  0 2.162324649298598  C 0 1.9365397461589813  0.08591065292096225 1.7368069472277858  0.2577319587628866 1.5631262525050087  L 1.5463917525773194 0.2605210420841686  C 1.718213058419244 0.08684034736138857  1.9158075601374573 0  2.1391752577319587 0  C 2.3625429553264605 0  2.5601374570446738 0.08684034736138857  2.731958762886598 0.2605210420841686  L 14.742268041237113 12.400801603206414  Z " fill-rule="nonzero" fill="#000000" stroke="none" transform="matrix(1 0 0 1 1158 6233 )" />
  </g>
</svg>