<?xml version="1.0" encoding="utf-8"?>
<svg version="1.1" xmlns:xlink="http://www.w3.org/1999/xlink" width="20px" height="32px" xmlns="http://www.w3.org/2000/svg">
  <g transform="matrix(1 0 0 1 -224 -9310 )">
    <path d="M 19.65635738831615 1.92384769539078  C 19.885452462772054 2.137608550434198  20 2.383433533734131  20 2.661322645290582  C 20 2.939211756847026  19.885452462772054 3.185036740146959  19.65635738831615 3.3987975951903806  L 6.151202749140894 16  L 19.65635738831615 28.60120240480962  C 19.885452462772054 28.81496325985304  20 29.06078824315297  20 29.338677354709418  C 20 29.616566466265866  19.885452462772054 29.862391449565795  19.65635738831615 30.07615230460922  L 17.938144329896907 31.67935871743487  C 17.70904925544101 31.89311957247829  17.445589919816726 32  17.147766323024054 32  C 16.84994272623139 32  16.586483390607107 31.89311957247829  16.3573883161512 31.67935871743487  L 0.3436426116838488 16.7374749498998  C 0.11454753722794968 16.523714094856377  0 16.277889111556444  0 16  C 0 15.722110888443552  0.11454753722794968 15.47628590514362  0.3436426116838488 15.262525050100201  L 16.3573883161512 0.3206412825651306  C 16.586483390607107 0.10688042752170901  16.84994272623139 0  17.147766323024054 0  C 17.445589919816726 0  17.70904925544101 0.10688042752170901  17.938144329896907 0.3206412825651306  L 19.65635738831615 1.92384769539078  Z " fill-rule="nonzero" fill="#000000" stroke="none" transform="matrix(1 0 0 1 224 9310 )" />
  </g>
</svg>