<?xml version="1.0" encoding="utf-8"?>
<svg version="1.1" xmlns:xlink="http://www.w3.org/1999/xlink" width="19px" height="32px" xmlns="http://www.w3.org/2000/svg">
  <g transform="matrix(1 0 0 1 -1132 -9311 )">
    <path d="M 18.67353951890034 15.262525050100201  C 18.891179839633452 15.47628590514362  19 15.722110888443552  19 16  C 19 16.277889111556444  18.891179839633452 16.523714094856377  18.67353951890034 16.7374749498998  L 3.460481099656357 31.67935871743487  C 3.242840778923253 31.89311957247829  2.9925544100801833 32  2.7096219931271475 32  C 2.4266895761741125 32  2.1764032073310426 31.89311957247829  1.958762886597938 31.67935871743487  L 0.32646048109965636 30.07615230460922  C 0.10882016036655219 29.862391449565795  0 29.616566466265866  0 29.338677354709418  C 0 29.06078824315297  0.10882016036655219 28.81496325985304  0.32646048109965636 28.60120240480962  L 13.15635738831615 16  L 0.32646048109965636 3.3987975951903806  C 0.10882016036655219 3.185036740146959  0 2.939211756847026  0 2.661322645290582  C 0 2.383433533734131  0.10882016036655219 2.137608550434198  0.32646048109965636 1.92384769539078  L 1.958762886597938 0.3206412825651306  C 2.1764032073310426 0.10688042752170901  2.4266895761741125 0  2.7096219931271475 0  C 2.9925544100801833 0  3.242840778923253 0.10688042752170901  3.460481099656357 0.3206412825651306  L 18.67353951890034 15.262525050100201  Z " fill-rule="nonzero" fill="#000000" stroke="none" transform="matrix(1 0 0 1 1132 9311 )" />
  </g>
</svg>